<?xml version="1.0" standalone="no"?>
<!DOCTYPE svg PUBLIC "-//W3C//DTD SVG 20010904//EN"
 "http://www.w3.org/TR/2001/REC-SVG-20010904/DTD/svg10.dtd">
<svg version="1.0" xmlns="http://www.w3.org/2000/svg"
 width="800.000000pt" height="600.000000pt" viewBox="0 0 800.000000 600.000000"
 preserveAspectRatio="xMidYMid meet">
<metadata>
Created by potrace 1.15, written by Peter Selinger 2001-2017
</metadata>
<g transform="translate(0.000000,600.000000) scale(0.100000,-0.100000)"
fill="#000000" stroke="none">
<path d="M1593 3316 c-144 -46 -234 -162 -236 -305 -1 -102 24 -164 97 -237
93 -93 107 -96 438 -92 262 3 275 4 316 26 66 35 119 88 149 150 24 49 28 69
28 142 0 107 -26 170 -96 235 -92 86 -107 90 -399 92 -192 2 -265 -1 -297 -11z
m509 -107 c90 -19 168 -115 168 -208 0 -75 -56 -161 -124 -192 -36 -16 -69
-19 -271 -19 -202 0 -235 3 -270 19 -88 40 -129 110 -123 207 6 98 68 172 161
194 51 12 401 11 459 -1z"/>
<path d="M2462 3004 l3 -327 58 0 58 1 2 268 2 269 203 3 c234 3 274 -4 302
-51 29 -47 26 -90 -9 -129 l-29 -33 -197 -5 -197 -5 181 -158 182 -158 89 -2
c50 -1 90 0 89 3 0 3 -54 48 -119 100 -65 52 -119 98 -119 103 -1 4 23 7 52 7
65 0 123 26 164 73 41 47 56 96 51 167 -5 74 -40 129 -105 167 l-48 28 -308 3
-307 3 2 -327z"/>
<path d="M3653 3308 c-24 -25 -403 -615 -403 -626 0 -13 132 -5 145 9 7 8 79
120 160 249 81 129 151 239 155 243 6 7 180 -259 180 -276 0 -4 -74 -7 -165
-7 l-165 0 36 -55 37 -55 171 0 171 -1 35 -55 35 -56 73 -1 c39 -1 72 0 72 2
0 3 -6 12 -13 20 -8 9 -94 142 -192 296 -98 154 -190 292 -204 308 -33 36 -97
38 -128 5z"/>
<path d="M4377 3319 c-84 -20 -171 -90 -215 -174 -23 -43 -27 -62 -27 -140 0
-78 4 -97 28 -147 30 -62 83 -115 149 -150 41 -22 57 -23 287 -28 l244 -5 39
58 39 57 -253 0 c-283 0 -307 5 -362 71 -82 96 -73 215 21 300 55 50 106 59
327 59 l184 0 31 48 c17 27 31 52 31 55 0 10 -479 6 -523 -4z"/>
<path d="M4980 3022 c0 -289 1 -310 19 -326 16 -15 51 -17 322 -17 167 0 305
4 306 8 2 4 17 28 33 53 l30 45 -295 3 -295 2 0 270 0 270 -60 0 -60 0 0 -308z"/>
<path d="M5893 3311 c-144 -49 -223 -162 -223 -315 0 -126 72 -236 190 -290
54 -25 62 -25 290 -26 l235 -2 32 49 c18 26 32 51 32 56 1 4 -109 7 -244 7
-267 0 -292 4 -348 58 -29 27 -57 72 -57 91 0 7 93 12 272 13 l272 3 33 53 34
52 -306 0 c-168 0 -305 4 -305 8 0 4 13 29 29 54 20 31 44 53 77 69 46 23 61
24 261 27 l211 4 31 50 c17 27 31 51 31 54 0 2 -111 4 -247 4 -212 -1 -256 -3
-300 -19z"/>
<path d="M6522 3307 c-28 -30 -28 -68 1 -95 33 -31 80 -29 106 4 12 15 21 34
21 44 0 10 -9 29 -21 44 -27 34 -77 36 -107 3z"/>
</g>
</svg>
