<?xml version="1.0" standalone="no"?>
<!DOCTYPE svg PUBLIC "-//W3C//DTD SVG 20010904//EN"
 "http://www.w3.org/TR/2001/REC-SVG-20010904/DTD/svg10.dtd">
<svg version="1.0" xmlns="http://www.w3.org/2000/svg"
 width="1291.000000pt" height="3392.000000pt" viewBox="0 0 1291.000000 3392.000000"
 preserveAspectRatio="xMidYMid meet">
<metadata>
Created by potrace 1.15, written by Peter Selinger 2001-2017
</metadata>
<g transform="translate(0.000000,3392.000000) scale(0.100000,-0.100000)"
fill="#000000" stroke="none">
<path d="M0 33620 l0 -300 300 0 300 0 0 -3400 0 -3400 4414 0 4413 0 41 83
c22 45 67 138 100 207 64 131 129 229 246 369 88 105 244 261 354 353 l83 70
-91 56 c-49 32 -150 95 -223 141 -72 46 -177 113 -232 147 -55 35 -131 83
-170 107 -38 24 -109 68 -157 98 -79 49 -88 57 -88 85 0 36 -28 65 -115 119
-33 21 -85 53 -115 73 -30 20 -71 46 -90 58 -47 29 -289 182 -542 342 -244
155 -277 172 -320 172 -18 0 -28 -4 -22 -8 6 -4 10 -15 8 -25 -5 -32 -14 -32
-20 1 -4 22 -13 32 -32 37 -14 3 -314 190 -666 414 -353 224 -699 445 -771
490 -71 45 -193 123 -270 172 -257 165 -777 496 -945 601 -139 88 -216 149
-234 186 -53 109 22 229 204 324 104 54 641 326 681 344 75 35 129 69 125 80
-2 6 0 16 6 22 8 8 15 7 25 -6 14 -16 14 -16 9 0 -6 20 13 36 23 20 4 -7 13
-6 25 4 11 8 15 14 9 14 -6 0 -16 12 -21 28 -9 24 -10 25 -11 5 -1 -15 -7 -23
-18 -22 -10 0 -13 3 -6 5 7 3 10 11 7 19 -3 7 3 16 14 19 11 4 23 14 26 22 4
10 2 12 -6 8 -6 -4 -25 -9 -42 -11 -17 -2 -32 -8 -34 -13 -2 -6 -9 -10 -16
-10 -6 0 -19 -9 -29 -20 -20 -24 -46 -26 -48 -5 -1 8 -2 21 -3 28 -1 6 -5 16
-11 20 -6 4 -1 7 10 5 16 -2 19 2 17 21 -2 21 0 22 15 10 17 -13 17 -12 0 14
-21 32 -14 55 10 32 8 -9 18 -13 21 -10 4 3 0 10 -8 15 -10 7 -11 10 -2 10 10
0 10 4 0 19 -7 11 -15 18 -19 15 -4 -2 -1 9 7 26 16 32 28 41 17 14 -4 -12 -1
-15 12 -13 10 2 17 6 15 9 -8 12 22 51 36 46 21 -8 37 29 24 54 -12 22 -6 40
12 40 7 0 6 -6 -2 -15 -9 -11 -9 -15 -1 -15 7 0 10 -4 6 -9 -3 -5 -1 -12 5
-16 6 -4 10 6 11 22 0 15 3 22 6 16 3 -9 10 -10 24 -3 13 7 19 7 19 0 0 -5 -5
-10 -11 -10 -6 0 -9 -9 -6 -20 3 -11 1 -18 -4 -14 -5 3 -9 0 -9 -5 0 -6 -6
-11 -14 -11 -21 0 -29 -17 -17 -37 9 -16 10 -15 11 5 0 13 4 20 10 17 6 -3 16
-3 23 2 6 4 18 8 26 10 7 1 19 7 25 14 8 9 6 10 -11 6 -31 -7 -29 7 3 22 19 8
25 17 21 31 -3 11 -1 20 4 20 5 0 9 -7 9 -16 0 -8 5 -12 11 -9 6 4 8 9 5 12
-8 9 21 33 41 34 10 1 5 4 -12 8 -19 5 -37 2 -50 -6 -28 -18 -45 -16 -39 5 5
14 4 14 -4 3 -9 -12 -13 -12 -26 -2 -14 12 -16 10 -17 -15 0 -28 -1 -28 -11
-6 -6 12 -18 22 -27 22 -14 0 -14 -2 -1 -10 20 -13 6 -23 -21 -15 -13 4 -17
10 -11 14 7 4 8 12 2 21 -15 23 -12 33 8 28 10 -3 23 1 29 7 9 10 7 14 -8 18
-10 3 -19 1 -19 -4 0 -13 -28 -11 -36 3 -4 6 -3 8 3 5 14 -9 38 21 38 47 0 14
5 20 18 18 22 -4 22 6 0 31 -18 20 -18 20 10 2 24 -15 27 -16 21 -1 -8 21 12
21 24 0 6 -10 12 -12 16 -6 9 15 -21 35 -45 29 -12 -3 -18 -3 -15 0 3 4 1 12
-4 18 -7 9 -6 16 5 25 13 10 15 9 15 -9 0 -16 5 -21 18 -19 9 1 24 -1 32 -5 8
-5 0 5 -17 21 -32 28 -41 47 -25 54 4 2 15 19 24 38 17 34 17 35 -4 38 -17 3
-18 6 -7 14 12 8 12 9 -1 5 -8 -2 -16 -9 -16 -15 -3 -25 -5 -27 -14 -12 -6 9
-10 10 -10 3 0 -7 7 -16 16 -21 14 -8 14 -10 -1 -25 -9 -10 -20 -15 -25 -12
-4 3 -13 -2 -19 -9 -10 -11 -9 -14 3 -12 9 1 19 5 22 9 14 13 22 7 17 -12 -3
-12 -11 -17 -19 -14 -8 3 -20 1 -27 -5 -6 -5 -20 -8 -30 -7 -10 2 -16 -2 -14
-8 5 -17 -21 -40 -35 -31 -8 5 -9 2 -5 -10 4 -9 3 -15 -2 -11 -5 3 -15 -1 -23
-8 -7 -7 -25 -12 -39 -12 -22 0 -26 4 -24 23 2 16 -2 22 -11 18 -7 -3 -16 -1
-19 4 -3 4 1 10 7 13 9 3 7 11 -7 27 l-20 23 23 -8 c22 -6 23 -6 11 17 -7 12
-12 30 -11 38 2 11 -2 9 -13 -4 -8 -11 -15 -15 -15 -9 0 7 5 15 10 18 6 4 7
11 4 17 -5 8 -1 9 11 4 12 -4 25 0 38 14 10 12 25 19 33 16 7 -3 16 -1 19 4 3
6 15 6 30 0 16 -6 25 -5 29 3 3 9 5 9 5 0 1 -7 11 -18 24 -24 18 -9 20 -9 10
2 -18 18 -16 32 2 25 8 -3 15 0 15 7 0 8 4 7 10 -3 8 -13 11 -13 19 -1 5 8 18
12 30 8 25 -6 30 18 5 27 -22 9 -26 8 -18 -6 4 -6 3 -8 -4 -4 -7 4 -6 15 6 35
9 16 20 27 25 24 4 -2 3 -11 -4 -19 -6 -8 -9 -17 -5 -21 3 -4 12 1 19 11 7 10
17 17 22 16 20 -4 35 0 35 10 0 6 -11 8 -25 4 -16 -4 -25 -2 -25 6 0 6 5 8 12
4 7 -4 8 -3 4 5 -4 6 -11 9 -16 6 -4 -3 -14 2 -21 11 -11 13 -9 14 17 9 27 -6
28 -5 11 8 -13 11 -27 13 -46 7 -37 -10 -61 4 -53 32 4 17 2 20 -11 15 -9 -3
-21 1 -29 11 -12 16 -11 16 6 2 18 -14 19 -13 13 3 -5 12 -1 17 11 17 23 0 42
19 42 43 0 12 -4 16 -12 11 -7 -4 -4 2 6 14 23 26 28 28 19 6 -5 -14 -3 -15
15 -5 11 6 24 21 27 32 6 17 9 19 16 8 6 -10 9 -6 9 13 0 20 4 26 15 22 8 -4
15 -2 15 4 0 5 -7 12 -15 16 -21 8 -19 25 2 22 18 -3 44 15 37 25 -2 4 4 13
13 20 14 12 16 12 8 0 -5 -10 -4 -12 4 -7 7 5 9 16 5 28 -4 12 -1 24 7 30 10
7 7 8 -12 5 -23 -3 -25 -1 -21 21 3 17 1 23 -7 18 -6 -4 -11 -2 -11 3 0 6 4
11 9 11 5 0 12 7 15 16 4 11 2 15 -8 11 -10 -4 -13 -1 -9 8 3 8 9 13 13 10 4
-2 16 6 25 19 10 13 24 22 31 19 7 -3 14 5 16 19 2 18 9 23 30 21 16 -1 37 8
53 23 21 20 24 27 15 44 -10 19 -6 25 14 21 5 -1 4 4 -3 12 -9 12 -8 18 4 31
9 9 13 16 9 16 -5 0 -3 5 4 12 19 19 14 30 -9 23 -16 -5 -20 -3 -16 6 2 8 10
13 16 11 8 -1 9 3 3 15 -13 24 -12 72 1 80 6 4 8 0 4 -10 -3 -10 -2 -17 3 -17
6 0 11 6 11 13 1 6 2 17 4 22 1 6 3 16 3 24 1 7 8 11 15 8 8 -3 18 7 26 24 7
16 20 29 29 29 8 0 13 3 9 6 -3 3 -2 17 3 30 7 19 6 24 -5 24 -8 0 -15 4 -15
10 0 5 7 7 15 4 10 -4 15 0 15 11 0 9 4 13 10 10 6 -3 7 1 4 9 -4 11 0 16 11
16 12 0 15 5 10 20 -5 15 -2 20 10 20 14 0 16 6 10 36 -4 24 -3 34 4 29 7 -4
11 4 11 20 0 29 24 60 40 50 14 -9 12 9 -2 24 -11 10 -10 12 2 9 10 -2 16 6
18 25 l3 27 -1889 0 -1890 0 20 -52 c12 -29 25 -71 30 -93 5 -22 12 -56 17
-75 4 -19 13 -45 19 -57 7 -12 12 -37 12 -56 0 -18 7 -56 15 -84 23 -79 55
-273 60 -370 2 -48 7 -137 10 -198 6 -105 1 -159 -26 -280 -6 -27 -12 -59 -13
-70 0 -11 -8 -27 -16 -35 -8 -8 -24 -32 -35 -52 -11 -21 -27 -38 -37 -38 -9 0
-20 -10 -24 -22 -11 -38 -70 -111 -119 -148 -25 -19 -51 -39 -58 -45 -7 -5
-38 -23 -70 -40 -31 -16 -57 -34 -57 -39 0 -4 -7 -6 -15 -3 -8 4 -17 2 -20 -3
-4 -6 -16 -10 -28 -10 -12 0 -31 -7 -41 -15 -10 -8 -22 -12 -27 -10 -4 3 -10
1 -13 -4 -4 -6 -18 -6 -36 -1 -20 6 -30 5 -30 -2 0 -7 -4 -7 -13 1 -10 8 -17
7 -27 -2 -10 -10 -11 -9 -5 3 7 12 6 13 -6 4 -19 -15 -65 -12 -87 6 -9 8 -24
15 -32 15 -8 0 -14 6 -12 13 1 9 -6 10 -25 6 -25 -6 -26 -5 -15 8 10 13 10 18
1 24 -8 4 -9 3 -5 -4 4 -7 1 -12 -9 -12 -11 0 -15 5 -11 16 3 8 2 12 -4 9 -6
-3 -10 1 -10 10 0 9 4 14 9 10 5 -3 12 -1 16 5 3 5 0 10 -8 10 -8 0 -18 11
-21 25 -4 15 -14 25 -24 25 -22 0 -42 19 -42 38 0 9 6 12 17 8 10 -4 1 10 -20
30 -22 22 -37 47 -37 61 0 14 -4 21 -10 18 -5 -3 -20 1 -32 9 -12 9 -17 16
-10 16 7 0 4 8 -8 20 -11 11 -17 26 -14 34 3 9 -3 17 -15 21 -12 3 -21 13 -21
21 0 8 -6 13 -12 12 -7 -2 -12 5 -11 15 1 14 -4 17 -18 14 -10 -3 -23 1 -30 9
-6 8 -15 11 -20 8 -5 -3 -9 0 -9 5 0 6 5 11 10 11 6 0 10 7 10 15 0 8 -5 15
-10 15 -6 0 -9 6 -8 13 2 6 -5 11 -14 11 -10 -1 -18 5 -18 12 0 8 -7 17 -16
21 -12 4 -13 7 -3 14 11 6 10 9 -4 14 -12 5 -14 11 -7 25 8 14 5 17 -14 15
-13 -2 -29 1 -37 6 -12 7 -12 9 1 9 8 0 0 10 -17 21 -34 22 -41 35 -22 41 7 2
1 16 -14 33 -45 51 -47 54 -47 75 0 12 -4 19 -9 16 -5 -3 -12 5 -15 18 -3 13
-15 26 -27 29 -14 4 -18 10 -13 18 5 9 2 10 -9 6 -11 -4 -17 2 -22 23 -5 21
-14 30 -36 35 -16 4 -26 11 -23 17 7 10 -41 58 -58 58 -5 0 -6 4 -3 10 4 6 -1
7 -10 3 -14 -5 -16 0 -14 31 4 41 -16 63 -38 44 -9 -7 -13 -7 -13 1 0 6 4 11
9 11 15 0 19 35 6 47 -7 7 -15 9 -19 6 -3 -3 -8 2 -12 11 -3 9 -10 13 -15 10
-5 -3 -9 -1 -9 4 0 6 8 13 18 17 33 13 -16 28 -72 22 -57 -7 -36 3 54 23 30 7
65 22 78 33 21 20 31 67 13 67 -10 0 4 82 19 110 14 27 154 96 261 130 93 29
151 66 175 112 l15 28 -1001 0 -1000 0 0 -300z m226 94 c20 -10 34 -24 34 -34
0 -10 -27 -43 -59 -73 -33 -30 -57 -58 -54 -61 18 -18 52 2 136 77 135 123
156 130 213 73 36 -36 43 -71 24 -120 -14 -38 -67 -68 -109 -62 -36 5 -71 31
-71 52 0 6 27 36 61 64 38 34 57 56 51 62 -18 18 -54 -4 -141 -84 -93 -87
-120 -102 -161 -93 -90 20 -103 163 -18 200 43 18 53 18 94 -1z m3975 -1126
c1 -7 1 -16 0 -20 0 -5 6 -8 15 -8 11 0 14 -6 9 -21 -5 -15 -4 -19 4 -15 6 4
11 0 11 -8 0 -9 4 -16 10 -16 5 0 6 -7 3 -17 -4 -10 -2 -14 4 -10 6 4 13 0 17
-8 3 -8 12 -15 19 -15 8 0 15 -11 16 -25 4 -57 6 -65 14 -65 5 0 15 -6 23 -14
11 -11 11 -16 1 -19 -9 -4 -8 -8 3 -16 8 -6 15 -16 15 -23 1 -7 6 -12 13 -10
7 1 12 -5 12 -13 0 -8 5 -15 11 -15 6 0 8 -7 5 -16 -6 -16 29 -74 63 -103 14
-11 13 -12 -9 -6 l-25 7 24 -20 c12 -12 24 -32 25 -45 0 -14 6 -23 13 -20 6 2
14 -5 18 -16 3 -12 11 -21 16 -21 5 0 9 -7 9 -16 0 -8 4 -13 9 -9 5 3 13 -5
17 -17 3 -12 12 -28 19 -35 8 -7 12 -24 11 -38 -3 -19 1 -25 15 -25 12 0 16
-5 13 -14 -3 -8 -1 -17 5 -21 6 -3 11 -19 11 -36 0 -16 4 -29 10 -29 5 0 7 7
4 15 -4 8 -1 15 4 15 6 0 13 -9 17 -19 3 -11 15 -23 26 -26 11 -4 26 -17 35
-30 22 -34 54 -126 48 -137 -3 -5 2 -8 12 -6 14 2 18 -4 20 -31 1 -18 8 -37
15 -42 8 -5 9 -9 3 -9 -5 0 -15 5 -22 12 -14 14 -16 0 -3 -21 5 -8 18 -12 29
-9 16 5 21 -1 27 -26 4 -17 7 -36 6 -42 -1 -7 9 -9 24 -6 15 2 25 0 25 -7 0
-6 -6 -11 -12 -12 -7 0 -1 -5 14 -10 17 -7 25 -15 21 -25 -3 -8 0 -20 6 -27 6
-8 8 -30 5 -53 -3 -21 -6 -45 -7 -51 0 -7 -5 -13 -10 -13 -5 0 -7 9 -4 20 3
13 -1 21 -15 25 -13 5 -16 10 -9 18 9 12 -10 52 -21 42 -2 -3 -5 3 -5 13 0 9
3 19 7 22 4 3 4 14 -1 25 -6 16 -8 17 -8 3 -1 -9 -6 -20 -13 -24 -6 -4 -8 -3
-5 3 4 6 -5 23 -19 38 -24 26 -24 28 -8 46 16 17 16 19 1 19 -10 0 -17 -4 -17
-10 0 -5 -7 -7 -15 -4 -11 4 -15 0 -15 -16 0 -19 -2 -20 -15 -10 -16 13 -21
35 -6 26 5 -4 7 3 4 14 -3 10 -8 19 -12 18 -3 0 -13 0 -21 1 -13 1 -13 2 0 11
12 8 11 10 -7 10 -24 0 -33 19 -10 21 10 0 10 2 0 6 -7 2 -13 15 -13 28 0 13
-5 27 -10 30 -6 4 -8 11 -5 16 4 5 -1 12 -9 15 -9 3 -16 14 -16 24 0 10 -8 26
-17 36 -10 10 -16 18 -14 18 3 1 2 12 -2 25 -3 13 -10 20 -16 16 -7 -4 -8 0
-4 11 5 12 3 15 -6 9 -10 -6 -11 -3 -2 13 9 16 7 21 -9 25 -13 3 -20 0 -20 -9
0 -17 -16 -18 -26 -2 -4 7 -3 8 4 4 8 -5 12 1 12 14 0 16 -5 20 -15 16 -11 -4
-15 2 -15 21 0 25 -34 91 -53 104 -6 4 -8 13 -5 20 2 8 -6 24 -19 36 -13 12
-23 20 -23 16 0 -3 -7 0 -15 7 -9 7 -13 21 -10 31 4 11 2 19 -5 19 -6 0 -8 4
-5 10 3 5 -2 22 -12 36 -13 20 -14 29 -5 32 15 5 16 39 0 48 -8 5 -9 2 -5 -10
4 -10 1 -24 -7 -31 -12 -12 -15 -12 -21 3 -3 9 -2 18 4 20 9 3 -17 64 -31 70
-4 2 -4 10 -1 18 3 8 0 14 -7 14 -6 0 -8 4 -5 10 3 5 0 7 -8 4 -19 -7 -65 36
-61 56 9 40 8 55 -2 53 -7 -1 -10 6 -7 18 4 14 -6 30 -36 58 -39 37 -52 61
-31 61 6 0 10 -9 10 -20 0 -10 9 -24 21 -30 28 -15 33 -8 11 16 -23 25 -44 73
-37 85 9 13 25 11 26 -3z m707 -3150 c1 -101 6 -168 12 -168 6 0 10 -6 10 -14
0 -21 -62 -33 -74 -13 -8 13 -14 13 -44 0 -74 -31 -132 19 -132 114 0 83 45
134 121 137 38 1 39 2 39 39 0 30 -4 37 -20 37 -11 0 -20 6 -20 14 0 16 29 24
75 22 l30 -1 3 -167z m1610 0 c1 -101 6 -168 12 -168 6 0 10 -6 10 -14 0 -21
-62 -33 -74 -13 -8 13 -14 13 -44 0 -74 -31 -132 19 -132 114 0 83 45 134 121
137 38 1 39 2 39 39 0 30 -4 37 -20 37 -11 0 -20 6 -20 14 0 16 29 24 75 22
l30 -1 3 -167z m-4188 127 c0 -8 -9 -15 -21 -15 -15 0 -19 -5 -15 -17 3 -10
17 -63 32 -118 14 -55 27 -101 28 -102 2 -2 15 42 30 96 28 99 28 141 0 141
-8 0 -14 7 -14 15 0 12 14 15 70 15 56 0 70 -3 70 -15 0 -8 -9 -15 -21 -15
-15 0 -19 -5 -15 -17 14 -50 55 -201 58 -218 3 -18 58 192 58 223 0 6 -7 12
-15 12 -8 0 -15 7 -15 15 0 12 13 15 55 15 42 0 55 -3 55 -15 0 -8 -7 -15 -15
-15 -14 0 -23 -24 -77 -220 -23 -82 -25 -85 -55 -88 -30 -3 -32 -1 -48 55 -34
121 -38 133 -44 133 -4 0 -18 -42 -32 -92 -25 -90 -26 -93 -56 -96 -35 -3 -25
-27 -103 236 -14 45 -27 72 -36 72 -8 0 -14 7 -14 15 0 12 14 15 70 15 56 0
70 -3 70 -15z m1620 -50 c0 -57 -2 -65 -19 -65 -15 0 -20 10 -26 50 -6 47 -9
50 -36 50 l-29 0 0 -140 0 -140 30 0 c20 0 30 -5 30 -15 0 -12 -17 -15 -95
-15 -78 0 -95 3 -95 15 0 10 10 15 30 15 l30 0 0 140 0 140 -34 0 c-33 0 -34
-1 -41 -50 -6 -40 -11 -50 -26 -50 -17 0 -19 8 -19 65 l0 65 150 0 150 0 0
-65z m1956 10 c5 -30 10 -35 35 -35 22 0 29 -5 29 -20 0 -16 -7 -20 -30 -20
l-30 0 0 -85 0 -85 35 0 c52 0 45 -25 -11 -39 -39 -10 -50 -9 -70 4 -23 14
-24 21 -24 110 0 78 -3 95 -15 95 -22 0 -18 16 10 44 14 14 25 34 25 46 0 13
7 20 20 20 14 0 21 -9 26 -35z m-3038 -58 c16 -15 22 -32 22 -64 l0 -43 -74 0
c-72 0 -74 -1 -69 -22 11 -46 34 -61 84 -55 51 6 65 1 48 -20 -20 -23 -86 -35
-124 -23 -52 17 -75 53 -75 117 0 80 22 114 90 137 25 8 74 -5 98 -27z m402
-2 c0 -33 -2 -35 -33 -35 -48 0 -57 -15 -57 -92 l0 -68 30 0 c20 0 30 -5 30
-15 0 -12 -15 -15 -75 -15 -60 0 -75 3 -75 15 0 8 7 15 15 15 12 0 15 17 15
90 0 73 -3 90 -15 90 -8 0 -15 9 -15 20 0 17 7 20 40 20 34 0 40 -3 40 -22 0
-20 1 -20 18 -5 16 15 57 35 75 36 4 1 7 -15 7 -34z m218 2 c16 -15 22 -32 22
-64 l0 -43 -74 0 c-72 0 -74 -1 -69 -22 11 -46 34 -61 84 -55 51 6 65 1 48
-20 -20 -23 -86 -35 -124 -23 -52 17 -75 53 -75 117 0 80 22 114 90 137 25 8
74 -5 98 -27z m672 -2 c0 -33 -2 -35 -33 -35 -48 0 -57 -15 -57 -92 l0 -68 30
0 c20 0 30 -5 30 -15 0 -12 -15 -15 -75 -15 -60 0 -75 3 -75 15 0 8 7 15 15
15 12 0 15 17 15 90 0 73 -3 90 -15 90 -8 0 -15 9 -15 20 0 17 7 20 40 20 34
0 40 -3 40 -22 0 -20 1 -20 18 -5 16 15 57 35 75 36 4 1 7 -15 7 -34z m208 2
c16 -15 22 -32 22 -64 l0 -43 -74 0 c-72 0 -74 -1 -69 -22 11 -46 34 -61 84
-55 51 6 65 1 48 -20 -20 -23 -86 -35 -124 -23 -52 17 -75 53 -75 117 0 80 22
114 90 137 25 8 74 -5 98 -27z m250 0 c16 -15 22 -32 22 -64 l0 -43 -74 0
c-72 0 -74 -1 -69 -22 11 -46 34 -61 84 -55 51 6 65 1 48 -20 -20 -23 -86 -35
-124 -23 -52 17 -75 53 -75 117 0 80 22 114 90 137 25 8 74 -5 98 -27z m501
22 c38 -14 51 -35 51 -88 l0 -41 -70 0 c-67 0 -70 -1 -70 -23 0 -39 32 -59 86
-55 63 4 68 -15 8 -38 -42 -16 -50 -16 -87 -3 -55 19 -79 55 -79 116 0 62 22
105 64 126 39 20 55 21 97 6z m254 0 c49 -13 77 -57 77 -122 0 -68 -21 -102
-75 -123 -39 -14 -52 -15 -86 -5 -103 31 -107 202 -6 246 39 17 43 18 90 4z
m389 -5 c4 -3 8 -18 8 -35 0 -34 -29 -41 -37 -9 -7 25 -36 34 -63 20 -36 -19
-24 -38 47 -74 76 -38 91 -74 50 -122 -20 -23 -32 -28 -73 -28 -80 -1 -104 9
-104 44 0 23 4 30 20 30 11 0 23 -7 26 -15 16 -41 88 -42 82 -2 -2 15 -19 30
-53 47 -87 44 -98 112 -22 146 29 13 96 12 119 -2z m318 -83 c0 -77 4 -103 16
-115 18 -19 16 -19 48 -6 25 9 26 12 26 95 0 71 -3 85 -16 85 -9 0 -14 7 -12
18 2 12 15 18 46 20 l42 3 0 -115 c0 -96 3 -116 15 -116 28 0 15 -28 -16 -35
-22 -5 -36 -3 -46 8 -13 13 -19 13 -50 1 -37 -16 -67 -11 -95 14 -15 12 -18
32 -18 105 0 72 -3 92 -17 102 -24 18 -7 35 38 35 l39 0 0 -99z m578 -16 c2
-84 6 -112 17 -118 31 -17 13 -27 -50 -27 -51 0 -65 3 -65 15 0 8 7 15 15 15
12 0 15 17 15 89 0 70 -3 90 -15 95 -21 8 -19 33 3 39 9 3 31 4 47 4 l30 -2 3
-110z m225 104 c50 -14 77 -57 77 -125 0 -38 -6 -59 -22 -79 -44 -56 -130 -68
-178 -23 -69 64 -45 195 40 225 44 15 38 15 83 2z"/>
<path d="M4767 29442 c-12 -13 -17 -36 -17 -73 0 -68 15 -92 55 -87 l30 3 3
88 3 87 -29 0 c-16 0 -36 -8 -45 -18z"/>
<path d="M6377 29442 c-17 -19 -24 -103 -11 -136 10 -26 41 -38 64 -26 18 9
20 21 20 95 l0 85 -28 0 c-16 0 -36 -8 -45 -18z"/>
<path d="M5299 29444 c-18 -22 -23 -114 -7 -144 20 -37 65 -40 78 -5 13 34 13
106 0 139 -11 30 -50 35 -71 10z"/>
<path d="M6806 29438 c-19 -27 -21 -103 -3 -138 16 -31 56 -39 74 -14 16 21
17 127 3 155 -14 26 -55 24 -74 -3z"/>
<path d="M10616 33912 c-2 -4 -14 -57 -26 -117 -22 -111 -28 -223 -12 -251 5
-8 46 -35 93 -58 79 -41 110 -57 220 -119 26 -15 49 -23 53 -20 3 4 6 2 6 -4
0 -5 24 -20 53 -34 28 -13 55 -28 58 -32 3 -5 13 -9 21 -11 32 -4 138 -68 138
-82 0 -18 -52 -70 -79 -79 -11 -3 -28 -22 -38 -42 l-17 -36 43 -36 c36 -30
277 -163 396 -218 17 -8 39 -19 50 -25 11 -6 54 -28 95 -49 41 -20 103 -53
138 -72 34 -20 62 -34 62 -32 0 2 26 -11 58 -29 32 -18 193 -100 358 -183 164
-83 365 -184 445 -225 80 -41 153 -77 162 -81 16 -6 17 56 17 918 l0 925
-1144 0 c-630 0 -1147 -3 -1150 -8z"/>
<path d="M10465 33112 c-11 -2 -32 -17 -47 -33 -26 -28 -40 -33 -85 -29 -15 1
-22 -5 -25 -22 -2 -17 10 -35 49 -72 29 -26 53 -54 53 -62 0 -8 -14 -17 -30
-21 -18 -3 -39 -18 -52 -37 -12 -17 -27 -34 -33 -38 -5 -4 -7 -8 -2 -8 4 0
-11 -17 -34 -37 -35 -31 -49 -37 -92 -40 -49 -2 -73 6 -159 49 -12 6 -18 5
-18 -3 0 -6 9 -13 20 -16 11 -3 20 -9 20 -14 0 -5 -7 -6 -15 -3 -8 4 -15 2
-15 -4 0 -6 14 -13 30 -17 17 -4 30 -10 30 -15 0 -16 65 -34 124 -33 34 0 92
10 130 22 38 12 71 19 73 17 12 -11 -21 -47 -48 -53 -51 -10 -70 -85 -26 -102
32 -13 87 -62 87 -78 0 -7 -8 -16 -17 -20 -10 -3 -48 -24 -85 -45 -45 -26 -68
-45 -68 -57 0 -16 18 -31 40 -35 3 -1 17 -12 30 -25 14 -13 19 -21 13 -17 -16
9 -16 1 -3 -25 9 -16 7 -19 -14 -19 -14 0 -28 -5 -31 -10 -13 -21 -133 10
-160 40 -25 28 -35 25 -35 -10 0 -24 6 -33 26 -41 15 -5 68 -37 118 -71 l91
-62 90 0 90 -1 1 -36 c1 -20 8 -51 18 -69 9 -18 16 -34 16 -36 0 -1 -19 -5
-42 -9 -24 -4 -52 -14 -64 -22 -12 -7 -26 -13 -30 -12 -16 4 -48 -14 -71 -39
-13 -14 -23 -21 -23 -17 0 5 -10 -1 -22 -12 -13 -11 -42 -31 -66 -44 -38 -20
-43 -27 -40 -54 2 -23 11 -34 39 -47 20 -9 55 -35 79 -57 l43 -40 -29 -6 c-38
-8 -180 -77 -221 -108 l-32 -23 44 -38 c25 -20 45 -43 45 -51 0 -7 6 -16 13
-19 6 -3 1 -3 -12 0 -17 4 -21 3 -16 -6 5 -9 1 -10 -16 -5 -36 11 -103 48
-112 63 -11 17 -46 15 -53 -3 -9 -23 4 -65 20 -65 8 0 21 -6 28 -13 7 -8 25
-20 38 -27 14 -7 43 -25 65 -39 22 -14 70 -35 107 -47 61 -21 71 -22 120 -9
87 22 101 27 141 52 20 13 37 20 37 16 0 -5 5 0 11 10 5 9 16 17 24 17 7 0 27
11 44 25 55 47 23 98 -101 164 -30 15 -52 33 -50 39 2 7 -3 10 -12 6 -10 -4
-16 -1 -16 7 0 10 15 15 49 16 106 3 232 35 251 63 3 5 16 10 30 11 14 2 30
10 36 18 6 8 17 12 25 9 17 -6 -85 -74 -125 -84 -30 -7 -54 -38 -58 -74 -3
-20 5 -28 47 -48 28 -13 68 -39 90 -57 22 -18 64 -45 94 -60 52 -26 59 -27
145 -20 50 4 97 11 103 17 9 7 13 7 13 0 0 -6 -8 -17 -17 -24 -10 -7 -19 -29
-21 -48 -2 -34 0 -36 59 -65 34 -16 81 -45 103 -64 23 -19 65 -45 95 -58 50
-22 59 -23 125 -13 101 15 147 33 256 101 8 5 25 13 38 19 17 7 22 18 22 46 0
31 -8 45 -44 80 l-44 42 52 7 c28 3 70 9 93 12 l43 5 -2 -44 c-2 -38 2 -48 30
-75 l33 -31 -42 -7 c-23 -4 -57 -14 -75 -21 -19 -8 -34 -11 -34 -7 0 4 -7 -2
-15 -13 -8 -10 -15 -15 -15 -11 0 5 -17 -4 -37 -20 -21 -17 -60 -40 -88 -53
-53 -25 -70 -41 -85 -77 -14 -35 -3 -49 55 -73 29 -12 65 -34 81 -49 33 -31
143 -86 191 -96 17 -3 51 -1 75 5 23 7 54 14 68 17 14 2 45 16 70 31 25 15 72
41 105 58 l59 31 -2 44 c-3 44 -12 57 -74 100 l-23 17 27 -3 c16 -2 30 1 34 6
3 5 9 7 14 4 5 -3 20 -1 33 4 14 6 41 7 60 4 33 -5 34 -6 27 -38 -7 -29 -4
-37 22 -62 51 -48 53 -60 10 -58 -40 1 -92 -14 -92 -28 0 -4 -4 -6 -8 -3 -5 3
-24 -5 -43 -18 -19 -13 -44 -26 -56 -30 -13 -4 -23 -12 -23 -17 0 -5 -5 -9
-10 -9 -8 0 -118 -68 -120 -74 -1 -1 -3 -17 -6 -37 -5 -35 -4 -36 41 -53 25
-10 69 -34 98 -53 90 -61 179 -103 217 -103 34 1 127 20 162 35 10 4 15 12 11
18 -3 5 -2 7 4 4 5 -3 20 0 34 7 13 7 46 25 73 40 27 14 55 26 62 26 38 0 17
93 -30 136 -21 19 -41 34 -47 34 -5 0 -9 4 -9 9 0 4 21 8 48 8 53 0 127 8 157
18 19 6 19 6 3 -8 -29 -23 -23 -78 12 -112 36 -35 38 -45 6 -45 -27 0 -107
-27 -116 -38 -9 -14 -80 -54 -80 -45 0 4 -5 0 -11 -9 -5 -10 -30 -26 -54 -37
-60 -27 -95 -63 -95 -100 0 -26 7 -33 71 -65 40 -20 85 -48 101 -61 16 -14 36
-25 44 -25 8 0 14 -4 14 -8 0 -18 103 -53 149 -50 l46 3 3 446 2 447 -25 16
c-14 10 -22 22 -19 31 3 8 9 14 12 13 32 -4 32 2 32 355 l0 353 -74 37 c-50
25 -88 37 -115 37 -36 0 -47 6 -79 40 -25 27 -82 62 -177 110 -77 40 -144 76
-149 81 -6 5 -25 9 -42 9 -46 0 -73 12 -119 55 -56 51 -318 182 -379 189 -40
4 -54 12 -84 45 -24 25 -73 58 -137 89 -55 28 -122 62 -149 76 -28 15 -66 26
-88 26 -31 0 -47 8 -82 40 -65 60 -304 180 -365 184 -41 2 -54 8 -92 45 -58
56 -273 161 -314 153z m463 -1322 c0 -23 6 -49 14 -58 31 -35 29 -50 -7 -56
-19 -4 -51 -14 -72 -23 -21 -9 -44 -18 -50 -19 -19 -3 -16 13 4 24 15 9 15 15
4 51 -6 23 -25 55 -42 70 -16 15 -29 31 -29 34 0 4 16 6 35 5 19 -1 38 2 42 5
3 4 28 7 54 7 l48 0 -1 -40z m445 -206 c10 -3 13 -16 10 -41 -3 -29 2 -42 24
-65 23 -24 25 -31 13 -38 -8 -5 -17 -7 -20 -5 -4 2 -30 -2 -59 -10 -42 -11
-50 -11 -41 -1 7 10 6 17 -5 26 -8 7 -15 18 -15 25 0 7 -14 26 -31 43 -38 37
-33 61 11 60 16 -1 33 2 37 5 8 8 56 9 76 1z"/>
<path d="M9437 32613 c-13 -13 -7 -39 15 -57 20 -17 216 -124 301 -163 20 -10
37 -21 37 -25 0 -5 6 -8 14 -8 8 0 31 -10 52 -22 58 -34 128 -27 254 25 139
58 174 106 100 137 -32 13 -67 6 -91 -19 -27 -27 -59 -51 -67 -51 -4 0 -23
-11 -42 -24 -29 -19 -45 -23 -85 -20 -27 3 -63 12 -79 21 -17 8 -44 22 -61 31
-16 8 -43 25 -60 36 -16 11 -36 20 -42 18 -7 -2 -13 1 -13 5 0 5 -13 17 -30
26 -16 10 -30 15 -30 12 0 -3 -19 7 -42 23 -77 53 -117 69 -131 55z"/>
<path d="M8992 32408 c-7 -7 -12 -24 -12 -38 0 -29 47 -60 255 -170 55 -29
111 -61 125 -70 14 -9 41 -23 60 -30 19 -8 56 -27 82 -43 71 -44 139 -41 248
11 47 22 101 53 120 70 32 27 33 31 22 56 -8 18 -19 26 -37 26 -14 0 -25 -5
-25 -11 0 -6 -7 -9 -15 -5 -8 3 -18 0 -22 -7 -5 -7 -19 -18 -33 -25 -14 -7
-41 -22 -60 -32 -58 -32 -96 -39 -137 -28 -39 10 -155 66 -228 109 -22 12 -60
33 -84 46 -24 12 -50 28 -58 34 -8 7 -41 26 -73 43 -32 17 -70 41 -84 54 -31
26 -29 25 -44 10z"/>
<path d="M8840 32292 c0 -4 -10 -12 -22 -17 -19 -8 -23 -18 -24 -60 0 -27 -4
-60 -8 -72 -6 -19 -4 -23 12 -23 11 0 22 -4 24 -10 2 -5 25 -11 52 -13 26 -2
53 -11 58 -18 8 -11 9 -10 4 4 -5 15 -3 16 14 7 15 -8 20 -8 18 1 -2 6 3 14
11 17 9 3 12 0 9 -10 -4 -8 0 -15 8 -15 7 0 11 4 8 9 -3 4 2 8 10 8 9 0 16 4
16 10 0 5 6 7 13 4 8 -3 20 2 27 11 10 12 16 13 26 4 23 -19 16 -34 -16 -36
-53 -3 -61 -6 -56 -20 3 -7 2 -13 -3 -13 -4 0 -22 -13 -39 -28 -25 -22 -38
-27 -67 -24 -19 2 -35 8 -35 14 0 5 -13 14 -30 19 -16 6 -30 15 -30 20 0 5 -9
9 -20 9 -11 0 -20 5 -20 10 0 6 -7 10 -15 10 -8 0 -15 5 -15 10 0 6 -6 10 -12
8 -29 -5 -95 16 -134 43 -51 35 -60 36 -74 8 -8 -15 -8 -24 0 -34 15 -18 163
-105 178 -105 7 0 20 -8 30 -17 10 -10 43 -31 73 -48 46 -25 64 -30 122 -29
60 1 78 7 163 50 106 54 140 85 124 115 -12 22 -41 39 -66 39 -9 0 -23 8 -31
18 -9 11 -12 12 -8 2 4 -8 -2 -5 -12 6 -10 12 -72 49 -138 83 -130 66 -125 64
-125 53z"/>
<path d="M9986 32105 l-29 -25 27 0 c15 0 29 -7 32 -15 4 -8 14 -15 24 -15 9
0 30 -11 46 -25 25 -22 27 -27 16 -45 -6 -11 -12 -30 -12 -44 0 -13 -10 -36
-22 -51 -20 -26 -25 -27 -83 -22 -34 3 -75 12 -91 19 -39 17 -127 78 -137 95
-14 23 -27 14 -27 -20 0 -32 3 -34 141 -106 135 -71 143 -73 194 -68 30 3 69
12 87 20 18 8 53 22 78 32 124 49 147 63 145 87 -1 13 -4 24 -5 26 -1 1 -3 6
-4 12 -2 17 -49 69 -58 64 -4 -3 -8 0 -8 5 0 6 -11 11 -25 11 -14 0 -25 6 -25
13 0 9 -3 8 -9 -2 -5 -8 -10 -9 -12 -3 -3 9 -189 81 -209 82 -3 0 -18 -11 -34
-25z"/>
<path d="M8370 32070 c0 -5 -7 -7 -15 -4 -9 4 -15 0 -15 -9 0 -9 -5 -19 -12
-23 -8 -5 -9 -2 -4 11 5 15 4 16 -9 5 -15 -13 -22 -45 -7 -36 5 3 16 -4 25
-15 9 -10 12 -19 7 -19 -6 0 -10 -4 -10 -10 0 -5 3 -9 8 -8 4 0 15 -2 25 -7
10 -4 21 -5 24 -2 3 4 15 -5 26 -19 17 -22 18 -27 6 -35 -8 -5 -10 -9 -4 -9 5
0 -1 -7 -13 -16 -13 -9 -29 -13 -36 -11 -9 4 -12 0 -9 -13 5 -18 -16 -30 -62
-36 -26 -3 -85 15 -85 26 0 5 -17 12 -37 16 -50 9 -100 31 -105 45 -7 21 -57
19 -69 -3 -6 -11 -7 -23 -2 -27 36 -31 259 -152 280 -153 56 -3 111 14 220 68
132 67 179 104 164 132 -12 23 -169 104 -184 95 -5 -3 -7 -1 -4 4 4 6 -1 13
-11 17 -9 3 -30 14 -47 25 -34 22 -45 25 -45 11z"/>
<path d="M6550 32040 c0 -5 5 -10 10 -10 6 0 10 -10 10 -22 0 -16 -3 -19 -9
-10 -6 10 -10 10 -21 -3 -11 -13 -10 -14 5 -8 14 5 17 3 12 -10 -3 -9 -2 -17
3 -17 6 0 10 5 10 11 0 5 4 8 9 5 5 -4 12 0 14 6 3 7 5 0 4 -15 -1 -25 -47
-84 -47 -61 0 5 -8 -4 -19 -19 -18 -28 -18 -28 -24 -7 -3 12 -10 19 -16 15 -6
-3 -11 1 -11 11 0 16 -1 16 -16 -2 -12 -14 -14 -15 -11 -3 3 9 0 16 -6 16 -37
-1 -47 5 -47 26 0 12 -7 31 -15 41 -18 24 -20 13 -3 -17 10 -20 10 -21 -5 -8
-10 7 -17 24 -17 38 0 15 -4 22 -11 18 -6 -4 -8 -13 -5 -21 5 -14 -42 -54 -66
-54 -9 0 -9 -3 -2 -8 6 -4 13 -19 16 -34 4 -21 1 -29 -13 -33 -22 -7 -25 -21
-6 -28 9 -3 9 -7 -1 -20 -12 -13 -10 -19 7 -33 11 -10 17 -22 14 -27 -3 -6 -1
-7 6 -3 8 5 9 12 2 20 -12 14 -10 56 2 56 5 0 7 -8 5 -17 -2 -10 4 -27 14 -37
22 -24 23 -37 4 -30 -8 3 -17 0 -22 -7 -4 -7 -3 -10 4 -5 6 3 13 2 17 -4 3 -5
1 -10 -5 -10 -6 0 -8 -5 -5 -10 9 -15 45 7 39 24 -3 8 0 17 6 21 6 3 10 3 9
-2 -4 -24 3 -43 16 -43 18 0 19 12 3 28 -9 9 -9 12 -1 12 7 0 15 -4 18 -10 9
-14 18 -13 41 6 18 15 18 15 -11 9 l-30 -6 30 20 c17 12 32 16 33 11 2 -6 8
-10 13 -10 4 0 6 6 3 14 -3 9 4 15 23 19 65 12 89 19 98 28 5 5 19 9 31 9 12
0 34 10 50 23 16 12 30 21 31 20 10 -9 24 -1 20 10 -4 10 2 13 21 10 26 -4 26
-4 8 11 -11 9 -15 16 -9 16 6 0 13 9 16 20 3 13 0 20 -9 20 -8 0 -14 5 -14 10
0 6 6 10 13 10 8 0 7 3 -3 10 -9 6 -17 5 -22 -3 -6 -9 -8 -8 -8 2 0 8 -6 11
-16 7 -8 -3 -25 0 -37 6 -12 7 -24 13 -27 14 -3 0 -13 4 -23 9 -11 5 -23 3
-30 -5 -9 -10 -9 -11 1 -6 13 8 17 -10 4 -18 -5 -3 -15 6 -22 19 -14 25 -30
33 -30 15z"/>
<path d="M9569 31858 c-13 -15 -28 -28 -34 -28 -5 0 -21 -12 -34 -25 -13 -14
-26 -24 -28 -21 -3 3 -15 -4 -27 -16 -54 -52 -122 -51 -230 1 -45 22 -96 54
-114 72 -25 24 -36 29 -45 20 -18 -18 1 -40 74 -84 161 -99 209 -116 280 -97
73 19 225 98 244 126 15 23 15 28 1 48 -23 36 -59 38 -87 4z"/>
<path d="M8895 31779 c-4 -6 1 -16 11 -23 11 -8 14 -18 9 -26 -6 -10 -4 -12 8
-7 12 4 17 1 17 -11 0 -15 2 -15 11 -2 9 12 12 13 16 1 5 -11 7 -11 14 0 7 11
9 10 9 -3 0 -16 -13 -22 -47 -21 -7 1 -10 -3 -7 -9 8 -13 -34 -52 -83 -77 -24
-12 -43 -19 -43 -17 0 3 -12 -6 -27 -20 -32 -30 -72 -28 -128 5 -20 11 -43 21
-51 21 -8 0 -14 5 -14 10 0 6 -6 10 -12 10 -23 1 -129 56 -122 63 4 4 0 7 -8
7 -9 0 -21 -7 -29 -16 -24 -29 -5 -45 182 -149 96 -53 106 -55 170 -39 71 18
271 120 304 154 28 30 26 55 -7 66 -12 3 -43 19 -70 35 -26 16 -48 24 -48 19
0 -6 -5 -10 -11 -10 -6 0 -9 7 -5 15 7 18 -29 41 -39 24z"/>
<path d="M9760 31758 c-14 -13 -26 -22 -27 -20 -2 1 -6 2 -10 2 -8 -1 62 -28
87 -35 8 -2 16 -4 18 -5 1 -2 7 -3 13 -4 7 0 17 -10 23 -21 6 -11 14 -22 18
-25 4 -3 8 -24 9 -46 5 -87 -76 -137 -176 -109 -44 12 -150 72 -185 105 -23
22 -32 25 -40 15 -8 -10 -4 -20 14 -40 14 -15 30 -24 35 -20 6 3 11 2 11 -3 0
-12 139 -96 195 -118 58 -22 111 -11 233 46 46 22 87 40 90 40 13 0 62 55 62
69 -1 19 -24 51 -37 51 -5 0 -71 32 -147 70 -75 39 -142 70 -149 70 -7 0 -24
-10 -37 -22z"/>
<path d="M9460 31444 c0 -8 -6 -14 -14 -14 -8 0 -21 -6 -28 -14 -8 -8 -37 -25
-66 -40 -28 -14 -53 -30 -56 -35 -13 -21 -114 -62 -139 -57 -15 2 -63 23 -108
45 -45 23 -87 41 -93 41 -6 0 -26 14 -44 30 -18 17 -39 30 -47 30 -19 0 -29
-38 -15 -55 17 -21 258 -155 290 -161 39 -8 84 8 225 78 157 78 198 116 160
148 -21 17 -65 20 -65 4z"/>
<path d="M9615 31330 c-27 -16 -50 -33 -50 -38 0 -6 -4 -14 -9 -19 -5 -5 -6
-3 -2 5 4 7 1 12 -8 12 -19 0 -30 -17 -16 -25 5 -3 8 -19 5 -36 -4 -21 -1 -29
10 -29 8 0 15 -4 15 -10 0 -5 4 -9 9 -7 5 1 9 -1 10 -6 0 -4 11 -19 24 -33 17
-18 36 -26 73 -29 27 -2 53 -4 57 -4 5 -1 5 -6 1 -12 -5 -8 -2 -9 11 -1 11 6
23 6 29 1 6 -5 24 -19 39 -30 21 -16 25 -24 16 -30 -8 -4 -10 -11 -6 -15 10
-10 -39 -53 -69 -60 -27 -7 -104 11 -104 25 0 7 -119 70 -180 95 -33 14 -100
55 -126 78 -26 23 -54 14 -54 -17 0 -26 7 -32 70 -67 25 -14 107 -62 183 -107
138 -82 195 -104 220 -82 8 6 17 8 20 5 7 -7 280 126 285 139 2 4 8 7 14 7 13
0 48 39 48 54 -1 33 -15 55 -48 69 -86 37 -108 48 -122 57 -8 5 -49 25 -90 45
-41 19 -100 48 -130 65 -30 16 -59 29 -65 29 -5 0 -32 -13 -60 -29z"/>
<path d="M10554 31240 c-163 -81 -186 -99 -182 -142 3 -32 23 -49 96 -83 17
-8 32 -20 32 -25 0 -6 7 -10 15 -10 8 0 15 -4 15 -10 0 -5 6 -10 13 -10 6 0
38 -13 70 -29 58 -28 79 -30 166 -15 38 6 158 61 179 81 7 7 20 13 28 13 8 0
14 5 14 10 0 6 7 10 16 10 28 0 45 27 41 64 -5 42 -22 58 -125 111 -42 22 -79
42 -82 45 -3 3 -24 14 -47 25 -24 11 -43 23 -43 27 0 24 -85 -2 -206 -62z"/>
<path d="M10165 31024 c-72 -37 -186 -103 -195 -113 -10 -11 -72 -41 -84 -41
-23 0 -48 -37 -41 -59 4 -13 62 -53 153 -107 81 -47 164 -97 184 -110 21 -13
40 -24 43 -24 3 0 31 -16 61 -35 30 -19 58 -35 63 -35 5 0 11 -3 13 -7 2 -5
17 -15 33 -24 17 -8 75 -42 130 -74 55 -32 125 -71 155 -88 30 -16 60 -33 65
-37 16 -12 345 -200 350 -200 3 0 29 -16 59 -35 30 -19 58 -35 61 -35 3 0 31
-16 61 -35 30 -19 57 -35 60 -35 3 0 44 -22 91 -50 47 -27 87 -50 91 -50 3 0
13 -6 21 -14 9 -7 41 -27 71 -43 105 -57 155 -86 180 -103 14 -9 85 -50 159
-90 168 -90 171 -90 332 5 63 38 133 80 157 94 79 47 103 71 96 94 -9 27 -20
38 -74 68 -101 58 -125 71 -135 79 -5 4 -32 20 -60 35 -129 72 -192 108 -220
124 -16 9 -70 39 -120 65 -49 27 -97 54 -105 61 -8 7 -44 28 -80 47 -36 19
-110 61 -165 93 -55 32 -122 69 -148 82 -27 13 -58 33 -70 43 -11 11 -29 20
-39 20 -10 0 -18 3 -18 8 0 4 -17 15 -37 25 -38 19 -61 31 -143 79 -25 14 -92
50 -150 80 -117 62 -173 92 -210 117 -14 9 -55 31 -92 50 -38 18 -68 38 -68
43 0 5 -4 6 -10 3 -5 -3 -10 -2 -10 3 0 4 -16 14 -35 22 -19 8 -35 16 -35 19
0 8 -63 36 -72 33 -5 -1 -8 2 -8 7 0 5 -12 14 -27 20 -16 7 -48 23 -73 36 -61
32 -83 31 -165 -11z"/>
<path d="M11132 31050 c-18 -4 -41 -15 -51 -24 -10 -9 -23 -16 -29 -16 -7 0
-12 -4 -12 -9 0 -5 -22 -18 -49 -30 -28 -11 -53 -26 -56 -31 -4 -6 -11 -8 -16
-5 -5 4 -9 2 -9 -4 0 -5 -10 -13 -22 -17 -60 -19 -76 -87 -28 -122 16 -12 31
-22 34 -22 3 0 28 -13 56 -30 27 -16 50 -27 50 -24 0 2 14 -2 30 -11 17 -9 30
-19 30 -23 0 -10 68 -33 105 -36 42 -3 196 51 210 74 3 6 14 10 24 10 10 0 26
9 36 20 10 11 21 18 25 15 3 -2 21 5 38 15 24 15 32 27 32 49 0 16 -7 36 -15
45 -8 8 -15 18 -16 23 0 4 -43 28 -95 53 -51 25 -94 48 -94 53 0 4 -5 7 -11 7
-6 0 -24 9 -40 21 -16 11 -29 17 -29 13 0 -5 -5 -3 -12 4 -13 13 -36 14 -86 2z"/>
<path d="M11600 30787 c-14 -8 -32 -11 -40 -9 -8 3 -12 1 -8 -3 8 -8 4 -11
-134 -87 -90 -51 -112 -70 -121 -106 -4 -18 3 -28 41 -55 26 -17 50 -32 54
-32 4 0 13 -6 20 -12 6 -7 16 -13 20 -13 4 0 45 -21 90 -46 109 -60 144 -61
264 -5 49 23 91 45 94 49 3 4 25 18 50 31 63 34 80 50 80 80 0 35 -39 65 -167
131 -60 30 -110 57 -113 61 -8 12 -59 29 -83 29 -12 0 -33 -6 -47 -13z"/>
<path d="M12045 30502 c-127 -74 -177 -102 -184 -102 -3 0 -23 -14 -44 -31
-27 -22 -37 -38 -37 -59 0 -24 7 -32 48 -51 26 -12 49 -26 52 -30 3 -4 59 -35
125 -69 136 -71 170 -73 255 -21 61 38 190 111 196 111 15 0 44 44 44 67 0 17
-14 32 -56 59 -31 20 -71 42 -89 50 -19 7 -36 18 -40 24 -3 5 -27 19 -53 30
-25 11 -49 26 -53 32 -4 6 -31 13 -61 15 -44 3 -61 -1 -103 -25z"/>
<path d="M12550 30236 c-72 -36 -247 -143 -268 -163 -23 -22 -9 -56 33 -84 22
-15 42 -25 44 -23 2 2 11 -2 20 -10 9 -7 41 -26 71 -42 30 -16 57 -31 60 -34
3 -3 33 -18 67 -34 76 -36 89 -33 233 49 l100 57 0 89 0 88 -85 42 c-47 23
-85 47 -85 52 0 6 -3 7 -6 4 -6 -6 -59 18 -74 33 -14 14 -52 6 -110 -24z"/>
<path d="M12860 29849 c-52 -28 -90 -65 -90 -87 0 -22 43 -62 66 -62 8 0 14
-3 14 -7 0 -5 14 -16 30 -25 l30 -17 0 109 c0 61 -3 109 -7 109 -5 -1 -24 -10
-43 -20z"/>
<path d="M12630 29706 c-14 -7 -62 -35 -107 -62 -45 -27 -127 -76 -182 -108
-72 -44 -101 -67 -106 -84 -3 -14 -2 -28 2 -33 11 -10 70 -45 108 -64 17 -8
68 -37 115 -64 143 -83 254 -141 280 -146 22 -4 110 31 110 44 0 4 10 12 21
19 17 11 14 3 -12 -35 -39 -55 -218 -237 -251 -254 -23 -12 -23 -12 -4 10 11
11 14 21 8 21 -6 0 -17 6 -24 13 -8 6 -29 20 -48 30 l-34 19 -27 -34 c-38 -45
-69 -145 -69 -220 0 -59 -1 -62 -54 -122 -61 -70 -176 -164 -176 -144 -1 20
-38 60 -50 53 -5 -3 -10 -1 -10 4 0 12 -37 53 -44 49 -3 -2 -15 6 -28 17 -13
11 -31 19 -40 17 -10 -2 -18 2 -18 8 0 6 -4 8 -10 5 -5 -3 -10 -3 -10 2 0 4
-11 13 -25 20 -16 7 -25 8 -25 1 0 -6 -7 -4 -17 3 -9 8 -19 13 -22 12 -14 -6
-41 9 -35 20 4 7 -7 -1 -25 -18 -17 -16 -44 -54 -59 -85 -24 -48 -27 -66 -26
-150 1 -145 22 -218 96 -322 11 -15 7 -23 -25 -56 -20 -21 -37 -40 -37 -44 0
-3 25 -8 55 -12 30 -3 80 -14 112 -24 46 -14 62 -25 89 -62 36 -50 60 -127 49
-161 -6 -17 -9 -19 -16 -8 -5 8 -9 9 -9 3 0 -5 -14 -9 -30 -8 -17 1 -37 -4
-45 -12 -7 -8 -18 -14 -23 -14 -6 0 -12 -5 -14 -11 -2 -6 -28 -13 -58 -16 -30
-3 -57 -9 -60 -13 -3 -4 -15 -10 -27 -14 -14 -5 -23 -15 -23 -28 0 -17 -5 -19
-27 -16 -16 3 -36 9 -45 13 -14 5 -18 2 -18 -13 0 -11 -7 -25 -15 -32 -13 -11
-14 -10 -9 4 4 11 1 16 -10 16 -9 0 -16 -4 -16 -8 0 -4 -8 -8 -19 -8 -11 0
-17 5 -14 13 3 7 1 13 -4 13 -10 0 -12 -11 -15 -62 -1 -16 -6 -28 -10 -28 -4
0 -8 -9 -8 -21 0 -26 -49 -79 -67 -72 -7 3 -13 1 -13 -5 0 -5 -12 -8 -26 -6
-19 2 -28 -3 -31 -16 -5 -20 -40 -34 -45 -18 -6 18 -48 -2 -48 -22 0 -14 -6
-17 -22 -13 -19 4 -20 3 -8 -7 12 -9 10 -10 -12 -6 -16 4 -28 2 -28 -3 0 -9
-56 -26 -75 -23 -6 1 -11 -7 -12 -18 -2 -29 -27 -52 -42 -37 -8 8 -11 5 -11
-12 0 -12 -6 -29 -12 -36 -31 -35 -38 -45 -38 -59 0 -8 -4 -17 -9 -20 -20 -13
-72 -136 -75 -181 -1 -5 -9 -21 -19 -35 -15 -21 -19 -23 -28 -10 -7 11 -8 8
-3 -12 5 -22 3 -28 -11 -28 -14 0 -15 -3 -5 -15 6 -8 9 -18 6 -24 -3 -5 -1
-11 6 -13 9 -3 8 -11 -5 -31 -21 -32 -21 -37 -3 -37 8 0 14 -11 14 -26 0 -36
-35 -56 -87 -49 -22 2 -41 1 -41 -4 0 -12 27 -22 43 -15 13 5 67 -41 67 -57 0
-5 17 -9 39 -9 21 0 44 -6 50 -14 8 -10 20 -12 39 -6 119 36 178 55 187 62 5
4 25 8 46 8 37 0 97 16 113 31 5 5 4 15 -4 24 -11 13 -15 13 -21 3 -7 -10 -9
-10 -9 1 0 7 -6 11 -14 8 -9 -4 -17 1 -21 12 -3 11 -15 19 -28 18 -28 -1 -99
12 -106 19 -3 3 28 5 69 4 41 0 140 3 220 8 136 8 149 10 208 41 59 31 120 45
273 66 33 4 62 18 100 47 72 54 109 70 306 129 92 27 215 65 273 84 58 19 121
37 140 40 19 4 56 13 83 22 l47 15 0 1188 0 1189 -27 13 c-16 8 -67 35 -114
61 -94 51 -102 53 -139 33z m-164 -2048 c50 -54 68 -98 40 -98 -8 0 -21 -9
-29 -20 -8 -11 -17 -17 -21 -13 -4 4 -15 8 -24 8 -9 1 -30 2 -45 3 -19 1 -26
6 -21 14 5 7 2 9 -8 5 -20 -7 -21 38 -2 54 8 6 14 17 14 25 0 7 5 16 12 20 7
5 9 2 4 -7 -4 -8 -1 -6 8 5 8 10 19 15 25 11 6 -3 11 -2 11 4 0 5 -8 12 -17
14 -15 4 -15 5 2 6 11 0 34 -14 51 -31z"/>
<path d="M235 29065 c-32 -31 -32 -65 0 -95 20 -18 31 -22 62 -17 32 6 42 2
68 -21 l30 -27 -27 30 c-23 25 -26 36 -21 71 5 36 2 43 -22 62 -36 28 -60 28
-90 -3z"/>
<path d="M9617 26868 c-23 -42 -106 -211 -143 -293 -9 -22 -19 -43 -21 -47 -2
-4 79 -7 181 -8 l184 0 4 25 c3 14 1 28 -3 31 -5 3 -2 19 7 35 12 23 20 29 35
24 18 -6 19 -4 10 13 -6 12 -11 30 -11 42 0 12 -4 19 -9 15 -5 -3 -13 0 -17 6
-4 7 -3 9 4 5 5 -3 13 0 15 6 4 10 8 9 16 -2 8 -11 11 -12 11 -2 0 8 -9 16
-21 19 -16 4 -17 8 -7 14 9 6 10 9 1 9 -7 0 -10 7 -7 15 4 8 2 15 -3 15 -5 0
-8 14 -5 30 3 19 0 30 -8 30 -7 0 -10 -7 -7 -15 4 -8 2 -17 -4 -20 -5 -4 -7
-11 -4 -16 4 -5 1 -9 -6 -9 -6 0 -9 8 -6 20 3 11 1 23 -5 26 -5 3 -8 15 -5 25
6 22 -1 24 -25 5 -10 -7 -18 -22 -18 -32 0 -15 -2 -16 -9 -5 -5 8 -7 20 -4 27
12 31 -10 34 -38 5 -31 -33 -41 -31 -11 2 16 19 16 19 -5 13 -17 -5 -23 -3
-23 8 0 32 -19 24 -43 -16z"/>
<path d="M600 20120 l0 -1720 34 0 c20 0 36 6 39 14 4 10 15 13 31 10 18 -3
28 2 37 17 6 12 7 19 1 15 -18 -11 -44 6 -39 25 3 11 1 19 -4 19 -20 0 -7 18
18 24 17 5 29 3 34 -6 6 -8 9 -9 9 -2 0 10 132 23 275 29 11 0 11 -30 0 -62
-5 -16 -15 -23 -34 -23 -30 0 -67 -19 -41 -21 8 -1 20 -1 26 0 5 0 20 -8 32
-19 20 -19 35 -20 212 -20 l191 0 -2 138 c-3 247 -3 445 -2 567 1 104 2 330 1
405 0 31 10 136 18 193 3 23 6 51 6 62 -1 11 4 23 11 27 9 6 9 8 0 8 -15 0 1
60 19 72 9 5 8 8 -5 8 -15 0 -17 6 -12 43 7 43 15 63 15 35 0 -9 4 -18 10 -20
5 -1 11 -15 12 -30 1 -17 6 -24 11 -19 6 6 5 22 -2 41 -11 34 1 76 20 65 5 -4
7 -10 4 -15 -3 -4 2 -10 10 -14 11 -4 14 2 11 24 -2 17 0 30 4 30 8 0 19 -45
23 -87 1 -13 6 -23 10 -23 9 0 3 -388 -6 -397 -3 -3 -2 -16 3 -29 6 -14 6 -24
0 -24 -5 0 -5 -13 1 -32 5 -18 9 -74 9 -125 0 -81 2 -94 19 -103 11 -5 21 -10
23 -10 7 0 -1 190 -11 255 -6 39 -11 165 -11 282 0 148 -4 231 -14 275 -8 35
-22 113 -31 173 -8 61 -18 126 -22 145 l-6 35 21 -26 c24 -30 36 -75 52 -209
6 -52 18 -133 26 -179 8 -46 14 -122 15 -170 0 -47 4 -104 8 -126 l9 -40 1 42
c0 23 5 45 11 48 15 9 12 45 -5 51 -8 3 -14 17 -13 30 3 29 18 32 18 4 0 -11
7 -20 15 -20 8 0 15 6 15 14 0 8 8 13 18 11 10 -1 17 -11 16 -24 0 -11 3 -21
7 -21 3 0 12 -20 18 -45 6 -25 16 -45 21 -45 6 0 9 -3 9 -7 -1 -5 -1 -33 0
-63 2 -55 2 -55 17 -27 8 15 17 27 21 27 6 0 -3 -604 -12 -790 -12 -254 -14
-390 -5 -390 6 0 10 10 10 23 1 12 5 164 11 337 21 653 18 925 -11 1064 -6 32
-10 60 -7 62 3 3 12 -36 21 -85 26 -141 38 -463 27 -716 -6 -121 -13 -325 -16
-452 l-6 -233 480 0 480 0 -6 58 c-9 108 -21 197 -46 342 -27 154 -33 203 -42
315 -18 239 -29 331 -56 480 -11 61 -33 164 -49 230 -16 66 -33 141 -39 167
-6 26 -11 88 -11 137 0 74 3 91 15 91 17 0 20 -16 5 -25 -11 -7 -13 -75 -4
-153 5 -39 11 -52 22 -50 10 2 18 -8 23 -27 4 -16 13 -48 19 -70 6 -22 14 -51
17 -65 2 -14 7 -32 10 -40 8 -18 7 -15 22 -68 6 -23 9 -46 6 -51 -3 -5 0 -11
7 -13 6 -2 13 -13 14 -24 2 -10 5 -30 7 -44 3 -14 10 -54 16 -89 11 -70 28
-95 55 -85 16 6 15 7 -2 20 -12 8 -22 31 -26 61 -19 125 -27 201 -36 353 -6
107 -18 207 -35 285 -40 187 -44 218 -32 233 16 20 24 -2 42 -114 9 -55 26
-137 39 -184 26 -95 43 -196 51 -312 8 -123 15 -158 34 -158 9 0 12 3 6 8 -6
4 -11 24 -11 45 0 29 3 37 18 37 21 0 23 11 6 29 -11 11 -9 11 10 1 27 -14 42
-5 22 13 -10 10 -11 9 -5 -3 5 -9 4 -12 -1 -7 -12 12 -12 30 1 39 18 14 25 8
26 -19 l1 -28 8 25 c12 38 12 52 -2 44 -9 -5 -8 -2 1 9 11 14 16 15 29 5 13
-11 14 -10 3 10 -7 14 -8 22 -1 22 11 0 11 -1 16 -40 1 -14 4 -32 5 -40 5 -31
-1 -61 -11 -55 -5 3 -10 1 -10 -6 0 -7 -6 -4 -14 7 -18 24 -23 19 -30 -29 -4
-25 -2 -36 4 -32 8 5 15 -31 11 -57 -2 -14 27 -8 32 6 4 10 16 13 37 9 18 -2
39 -1 48 3 10 4 28 8 42 10 14 1 37 5 53 8 15 2 27 0 27 -5 0 -5 -4 -9 -10 -9
-5 0 -10 -7 -10 -15 0 -8 4 -15 10 -15 5 0 9 -12 9 -27 0 -16 3 -52 7 -80 4
-35 3 -53 -4 -53 -15 0 -92 79 -92 95 0 11 -7 12 -39 6 -2 -1 2 -7 8 -14 6 -8
12 -22 14 -33 4 -23 45 -104 53 -104 3 0 4 7 0 15 -11 30 9 13 25 -20 11 -23
13 -35 5 -36 -6 0 -1 -5 10 -11 25 -12 37 -63 24 -107 -5 -17 -6 -38 -4 -48 4
-14 0 -19 -15 -19 -12 0 -17 4 -12 11 4 5 8 19 8 30 1 11 3 26 5 34 2 7 -3 16
-9 18 -8 3 -13 -4 -13 -16 0 -12 -5 -21 -10 -21 -6 0 -8 11 -4 28 8 33 8 32
-1 60 -8 25 -35 30 -35 6 0 -8 4 -13 9 -10 10 7 23 -36 13 -44 -9 -6 -9 -76 0
-85 4 -4 4 -13 1 -21 -3 -8 0 -14 6 -14 6 0 11 -9 11 -19 0 -10 9 -38 20 -62
21 -46 27 -115 10 -104 -11 7 -14 -8 -3 -19 9 -9 10 -14 17 -147 5 -78 11
-118 21 -129 17 -19 20 -34 5 -25 -6 3 -10 -4 -10 -17 0 -18 2 -20 10 -8 8 12
10 11 10 -7 0 -13 -4 -23 -10 -23 -5 0 -10 -14 -10 -31 0 -17 4 -28 10 -24 6
3 10 -4 10 -17 0 -19 -2 -20 -11 -8 -9 12 -9 11 -4 -5 4 -11 7 -30 6 -42 -1
-23 1 -23 112 -23 l113 0 -2 30 c-1 21 4 33 18 41 13 7 18 17 15 30 -3 12 2
23 14 29 23 13 25 35 2 26 -9 -4 -32 -9 -52 -12 -34 -6 -35 -5 -20 12 9 11 14
25 12 32 -3 7 4 12 16 12 11 0 23 5 26 11 4 6 13 8 20 5 7 -2 16 1 18 8 3 7
16 15 30 18 23 4 24 2 23 -36 -1 -28 -8 -47 -21 -58 -11 -10 -16 -17 -11 -18
5 0 3 -6 -3 -14 -10 -12 -8 -13 8 -9 12 3 21 9 21 14 0 5 5 9 10 9 22 0 8 -28
-20 -40 -24 -10 -28 -15 -19 -26 15 -19 27 -18 32 4 4 14 5 14 6 -3 1 -17 3
-18 11 -5 7 11 10 12 10 2 0 -7 -7 -20 -15 -28 -27 -28 -16 -34 65 -34 l80 0
0 100 c0 54 4 121 9 147 5 26 15 95 21 153 27 236 111 732 141 835 39 130 91
250 128 295 20 25 45 59 55 75 43 69 100 106 237 153 90 32 347 148 416 188
23 13 48 24 55 24 8 0 32 9 53 21 22 11 56 27 75 35 31 12 33 12 16 -1 -11 -8
-25 -15 -30 -15 -18 -1 -53 -35 -60 -58 -6 -16 2 -32 35 -67 24 -26 56 -56 72
-67 l29 -21 -13 21 c-7 11 -17 18 -21 16 -10 -6 -10 17 0 32 8 11 81 16 83 6
3 -27 7 -49 9 -57 5 -21 0 -36 -11 -29 -7 4 -10 2 -7 -6 2 -6 32 -28 66 -47
38 -21 60 -29 57 -20 -6 13 -17 20 -82 50 -22 10 -21 37 2 37 8 0 17 5 21 11
6 10 15 108 15 157 -1 12 4 22 9 22 6 0 10 10 10 21 0 18 2 19 15 9 9 -7 18
-10 21 -7 4 3 15 -2 25 -12 11 -10 32 -24 47 -32 15 -8 36 -22 46 -31 11 -10
25 -18 32 -18 6 0 22 -9 36 -19 13 -11 38 -23 54 -27 16 -4 33 -9 38 -12 20
-11 137 -7 148 5 14 18 33 16 49 -3 11 -13 10 -23 -3 -61 -18 -49 -16 -102 4
-114 9 -6 8 -12 -3 -25 -13 -16 -12 -16 17 -1 38 19 82 70 88 100 3 12 7 33
10 47 3 14 -1 53 -8 87 l-13 63 81 -44 c45 -24 116 -64 159 -89 43 -25 138
-76 210 -114 108 -55 144 -80 199 -136 45 -44 71 -80 78 -105 5 -20 26 -93 46
-162 45 -158 133 -602 173 -870 17 -113 43 -258 58 -322 l27 -118 181 0 180 0
0 44 c0 33 -6 51 -23 69 -19 20 -23 35 -22 78 1 30 -3 81 -8 114 -17 94 -20
136 -28 353 -5 155 -4 202 5 202 7 0 10 -4 6 -9 -3 -5 4 -12 15 -16 11 -3 20
-10 20 -15 0 -5 6 -7 14 -4 9 4 16 -12 25 -55 12 -62 20 -71 40 -47 14 17 -1
64 -24 72 -9 4 -13 13 -10 23 3 10 -4 26 -17 39 -27 26 -59 60 -77 85 -11 14
-11 20 -1 32 22 27 43 19 37 -15 -7 -33 11 -50 106 -105 l47 -27 -17 30 c-10
17 -22 28 -27 25 -5 -4 -7 1 -3 10 3 10 3 17 -1 17 -4 0 -9 12 -10 26 -1 15
-7 33 -13 40 -6 7 -8 18 -4 24 3 6 -1 24 -9 42 -19 37 -20 46 -4 30 19 -19 48
-15 48 6 0 10 -3 22 -7 26 -5 4 -8 11 -8 14 -1 4 -11 29 -22 55 -33 72 -12 95
41 45 10 -9 23 -15 28 -12 14 9 9 20 -17 34 -22 12 -55 64 -55 88 0 5 8 9 17
8 24 -1 23 23 -1 57 -18 24 -18 29 -6 37 8 5 24 7 35 5 11 -3 14 -2 8 1 -7 3
-13 19 -13 35 0 17 4 28 8 25 15 -9 62 -15 62 -7 0 4 -12 18 -26 32 -82 75
-118 176 -38 107 24 -21 69 -86 69 -99 0 -8 61 -59 70 -59 10 0 -14 36 -91
141 -35 48 -64 89 -64 93 0 18 36 1 63 -30 18 -20 40 -40 50 -45 15 -9 15 -5
-4 28 -11 21 -28 45 -37 53 -41 36 -85 120 -63 120 5 0 15 -15 21 -34 6 -19
27 -46 46 -61 40 -30 89 -99 80 -113 -3 -5 1 -18 9 -28 16 -22 20 -48 5 -39
-5 3 -10 2 -10 -4 0 -5 4 -11 9 -13 8 -3 61 -101 61 -113 0 -3 -10 0 -22 6
-19 10 -17 6 8 -23 45 -51 113 -239 100 -274 -6 -16 -13 -12 -49 29 -23 26
-48 47 -56 47 -11 0 -11 -3 -1 -15 7 -9 24 -38 36 -66 13 -28 37 -67 54 -87
16 -20 30 -42 30 -50 0 -7 9 -29 19 -50 25 -48 56 -215 42 -220 -6 -2 -16 -22
-21 -44 -10 -36 -13 -38 -24 -23 -7 10 -19 16 -26 13 -8 -2 9 -19 43 -38 62
-37 65 -44 93 -165 16 -74 18 -77 24 -45 10 57 39 107 68 118 23 9 72 17 155
25 9 1 20 10 23 20 6 18 14 18 122 12 161 -8 245 -15 254 -21 4 -3 8 -16 8
-30 0 -31 21 -31 77 2 34 20 42 29 33 38 -6 8 -8 22 -4 32 5 18 5 18 -8 2 -15
-18 -42 -18 -59 -1 -9 9 -18 8 -35 -4 -36 -23 -248 -14 -288 12 -28 19 -56 69
-56 101 0 9 -8 22 -17 29 -14 10 -15 16 -5 28 10 12 10 16 -2 20 -13 5 -14 -4
-11 -54 3 -33 1 -58 -4 -55 -14 9 -20 -19 -14 -61 7 -48 4 -45 -89 92 -81 120
-128 176 -128 154 0 -8 11 -31 25 -51 25 -38 77 -125 97 -166 24 -48 -7 -34
-66 29 -50 55 -65 79 -85 140 -37 116 -65 194 -121 334 -28 72 -73 191 -100
265 -63 178 -106 284 -143 359 -10 20 -13 21 -15 7 -4 -16 -25 -19 -22 -3 0 5
-11 18 -25 29 -32 25 -20 46 16 28 20 -10 22 -10 12 0 -17 19 31 63 58 55 13
-5 19 -2 17 7 -2 7 4 13 12 13 8 0 21 4 29 9 8 5 39 17 70 27 31 10 47 18 37
18 -15 1 -17 4 -9 12 8 8 17 8 33 -1 17 -9 19 -14 10 -20 -7 -4 18 -7 56 -5
40 1 70 7 72 14 2 6 14 11 27 11 13 0 34 10 47 23 13 12 22 21 21 18 -1 -2 4
-16 12 -31 11 -21 12 -36 4 -63 -5 -20 -7 -51 -4 -69 13 -75 46 -140 60 -118
3 5 3 10 -2 10 -4 0 -8 27 -8 60 0 33 -3 60 -7 60 -5 0 -8 35 -8 78 0 43 -5
83 -11 89 -7 7 -6 15 5 25 8 9 12 18 9 21 -3 3 6 9 21 13 36 9 56 -15 56 -67
0 -43 11 -48 15 -7 1 13 3 27 4 31 1 10 81 -53 151 -119 25 -23 55 -45 68 -49
19 -6 22 -3 22 23 0 16 9 41 21 56 11 14 18 30 14 36 -6 11 38 7 68 -5 22 -9
22 -41 0 -54 -13 -8 -15 -13 -6 -19 7 -4 13 -42 16 -95 4 -108 17 -127 17 -26
0 41 7 94 16 119 8 24 13 53 10 63 -7 26 11 70 25 61 6 -3 14 -1 18 5 4 6 15
9 24 5 9 -3 14 -10 11 -15 -3 -5 1 -6 9 -3 18 7 59 -35 53 -53 -3 -7 2 -13 10
-13 8 0 12 -5 9 -10 -4 -6 -10 -8 -15 -5 -9 5 -25 -104 -16 -113 3 -3 6 4 6
15 0 28 25 85 33 76 4 -3 7 -15 7 -25 0 -11 7 -18 20 -18 11 0 20 5 20 11 0 5
5 7 10 4 6 -3 10 -15 10 -26 0 -10 4 -19 10 -19 10 0 3 27 -12 46 -5 7 -3 14
7 18 10 4 14 14 11 32 -7 37 -19 45 -14 10 2 -21 -3 -32 -17 -40 -11 -6 -23
-15 -27 -21 -5 -7 -8 -7 -8 0 0 6 -3 37 -7 69 -4 44 -3 57 6 51 7 -4 10 -14 6
-24 -4 -11 -3 -13 4 -6 16 16 81 6 81 -12 0 -8 -4 -12 -8 -9 -5 3 -9 -1 -9 -9
0 -23 13 -18 25 10 6 14 19 25 28 25 14 0 15 2 3 17 -10 11 -10 17 -3 20 6 2
20 11 30 19 18 15 18 15 -3 11 -14 -3 -23 0 -23 6 0 7 14 13 30 14 18 1 28 -2
25 -7 -4 -6 -2 -10 4 -10 5 0 24 -12 42 -27 22 -19 34 -24 37 -15 2 8 10 5 21
-9 12 -15 30 -23 57 -24 68 -4 74 -5 73 -12 -1 -5 -1 -10 0 -13 2 -4 6 -88 12
-269 1 -12 4 -19 8 -15 4 5 13 81 19 168 7 88 15 163 19 167 12 11 98 -6 128
-25 21 -14 24 -20 14 -32 -8 -9 -8 -14 -1 -14 6 0 17 10 23 23 18 34 19 34 48
-2 16 -19 39 -35 52 -37 13 -1 26 -3 28 -3 3 -1 -46 -61 -76 -93 -32 -34 -6
-28 30 7 l37 36 0 -33 c0 -18 -9 -53 -20 -77 -28 -60 -19 -63 11 -4 13 27 27
50 30 53 3 3 9 14 13 24 13 36 28 0 24 -57 -3 -49 -1 -54 14 -46 20 11 28 -6
29 -64 0 -35 2 -38 9 -19 5 12 12 22 14 22 3 0 3 -7 0 -15 -4 -8 1 -33 10 -55
9 -22 16 -63 16 -91 0 -33 4 -48 11 -44 5 4 8 12 6 18 -2 7 2 17 8 24 7 7 11
28 8 50 -5 43 3 42 12 -2 14 -73 14 -144 -1 -203 -9 -35 -14 -66 -11 -69 8 -8
37 65 37 93 0 12 5 26 10 29 9 5 14 -9 8 -18 -2 -2 3 -11 10 -20 17 -20 19
-165 3 -195 -10 -18 -9 -22 3 -22 8 0 16 6 19 13 9 26 55 -34 72 -95 18 -67
29 -162 17 -154 -12 7 -118 -30 -207 -74 -68 -33 -87 -48 -124 -99 -46 -62
-90 -101 -114 -101 -7 0 -18 -5 -23 -10 -7 -7 -11 -5 -11 7 0 18 81 133 131
186 14 15 26 31 26 35 0 18 115 82 149 83 20 1 54 4 76 6 22 2 50 5 62 6 12 1
18 6 13 11 -4 4 -40 7 -79 4 -43 -2 -73 0 -76 7 -3 6 -7 5 -11 -3 -5 -10 -78
-52 -92 -52 -3 0 3 9 13 20 10 11 16 22 14 25 -13 12 -139 -127 -175 -193 -45
-83 -67 -95 -53 -29 16 72 67 163 117 207 90 78 95 84 85 87 -14 5 -112 -55
-136 -82 -17 -19 -17 -19 -11 30 3 28 17 84 30 125 33 109 54 184 50 188 -6 5
-62 -100 -77 -143 -7 -22 -18 -46 -25 -54 -18 -20 -28 20 -19 77 7 47 67 238
86 274 6 11 9 24 7 30 -3 7 -21 -19 -42 -56 -33 -60 -39 -65 -50 -50 -11 15
-14 11 -19 -31 -4 -26 -7 -60 -7 -76 0 -26 -15 -47 -26 -36 -8 8 -13 49 -18
139 -4 82 -20 161 -38 184 -4 6 -9 24 -11 40 -2 16 -9 39 -16 52 -7 12 -9 32
-6 42 5 15 2 20 -10 20 -15 0 -16 9 -11 78 13 153 14 172 6 167 -5 -3 -7 -15
-5 -26 2 -11 0 -30 -4 -42 -5 -12 -12 -116 -16 -232 -8 -201 -8 -239 -2 -367
2 -32 -1 -58 -5 -58 -4 0 -8 11 -8 24 0 14 -5 28 -12 32 -7 5 -9 2 -5 -8 3
-10 -3 -20 -19 -28 -13 -8 -24 -19 -24 -26 0 -7 -6 -15 -12 -18 -7 -3 30 -2
82 1 52 4 109 7 125 8 17 0 33 4 36 9 4 4 6 -4 7 -19 0 -20 -3 -23 -10 -14 -5
9 -7 -18 -4 -71 2 -47 0 -116 -4 -155 -8 -71 -36 -165 -53 -176 -5 -3 -8 -9
-8 -13 1 -3 1 -9 0 -13 -1 -5 0 -18 1 -31 2 -27 -16 -52 -37 -52 -8 0 -20 -6
-27 -13 -9 -9 -45 -13 -115 -12 -71 0 -101 -3 -101 -12 0 -22 -57 -29 -71 -10
-4 5 -34 1 -68 -8 -46 -14 -64 -15 -75 -6 -11 9 -15 8 -20 -4 -3 -8 -15 -15
-26 -15 -12 0 -20 -7 -20 -18 0 -9 -16 -30 -35 -46 -40 -34 -89 -114 -100
-166 l-7 -35 21 19 c23 21 29 41 9 30 -7 -3 6 13 30 36 23 23 54 57 68 75 39
52 79 65 222 75 70 4 130 6 135 3 4 -2 7 1 7 6 0 6 9 11 20 11 11 0 36 6 54
14 21 9 46 11 67 7 19 -4 53 -3 75 2 23 6 50 7 60 3 18 -7 18 -9 -3 -23 -13
-9 -23 -22 -23 -30 0 -8 -4 -12 -9 -8 -5 3 -12 1 -15 -4 -11 -18 73 -17 96 1
13 10 35 18 49 18 15 0 30 7 33 15 5 13 10 14 27 4 12 -6 24 -7 28 -2 7 11
106 43 132 43 11 0 19 5 19 10 0 6 -10 10 -21 10 -20 0 -21 1 -5 23 9 12 20
31 25 43 5 12 45 42 89 68 72 42 146 109 179 162 11 16 13 11 12 -36 0 -30 2
-71 5 -90 11 -78 26 -157 36 -190 17 -54 25 -386 11 -437 -14 -53 -58 -91
-178 -155 l-88 -48 643 0 c353 0 642 3 642 6 0 17 -24 101 -33 111 -5 7 -7 19
-4 27 4 9 -1 17 -11 20 -20 7 -47 46 -31 46 5 0 7 5 4 10 -4 6 -11 8 -16 5 -5
-4 -9 0 -9 8 0 7 6 14 13 15 51 4 65 16 46 39 -8 10 -25 39 -38 64 -13 26 -36
61 -53 80 -30 32 -30 33 -10 48 11 9 23 26 26 38 4 13 14 21 26 20 20 -1 23
-18 23 -109 0 -27 7 -22 18 12 6 17 15 30 20 30 12 0 11 37 -1 45 -5 3 -10 11
-10 16 0 6 12 1 26 -10 35 -27 42 -27 92 10 46 34 83 89 60 89 -7 0 -23 3 -34
6 -19 5 -21 2 -17 -19 6 -32 -9 -40 -56 -32 -63 10 -75 24 -80 91 -1 5 -19 18
-41 28 -28 12 -42 25 -46 44 -10 46 -14 53 -24 47 -12 -7 -12 -1 -1 48 5 21 5
39 0 43 -5 3 -9 -5 -10 -18 0 -27 1 -29 -49 93 -17 42 -38 84 -48 95 -21 23
-46 78 -32 69 6 -3 13 1 16 10 5 13 16 15 63 10 41 -5 52 -3 41 4 -8 6 -23 11
-33 11 -26 0 -79 39 -71 52 4 7 10 4 16 -6 15 -26 28 -18 22 14 -4 17 -3 30 1
30 14 0 96 -95 101 -117 4 -13 12 -23 20 -23 15 0 47 -67 38 -81 -3 -5 -1 -9
4 -9 15 0 24 -32 13 -43 -7 -7 -18 -2 -35 16 -13 14 -27 23 -30 20 -3 -4 -6
-1 -6 5 0 6 -8 13 -18 16 -10 3 -35 22 -55 41 -45 42 -48 32 -7 -20 17 -21 30
-34 30 -29 0 4 15 -6 33 -23 17 -17 57 -47 87 -68 30 -20 67 -47 81 -60 35
-30 79 -59 79 -51 0 11 -43 51 -87 80 -31 20 -43 36 -43 52 0 13 5 24 10 24 6
0 2 12 -7 27 -10 15 -12 24 -5 20 26 -17 11 32 -20 66 -18 19 -58 62 -88 96
-30 34 -67 67 -82 74 -16 6 -28 15 -28 19 0 5 -9 8 -20 8 -13 0 -18 -5 -14
-14 3 -8 12 -12 20 -9 9 3 14 -2 14 -16 0 -12 -2 -21 -4 -21 -10 0 -66 66 -72
85 -4 11 -14 25 -23 32 -13 10 -6 11 34 7 28 -3 54 -10 59 -15 6 -5 18 -9 28
-9 9 0 22 -8 28 -17 7 -12 13 -14 16 -7 4 9 16 9 45 1 36 -9 63 -37 71 -74 1
-5 10 -17 20 -27 10 -11 18 -28 18 -37 0 -10 5 -19 11 -21 6 -2 13 -25 16 -51
3 -25 9 -44 14 -41 5 3 9 -6 9 -20 0 -18 -4 -24 -14 -20 -11 4 -13 0 -9 -14 6
-23 39 -36 47 -18 3 6 4 3 3 -8 -1 -10 7 -23 18 -30 11 -6 48 -33 82 -59 64
-49 77 -73 97 -187 6 -32 6 -33 -9 -15 -16 20 -16 20 -7 0 6 -11 21 -32 34
-46 23 -24 24 -29 11 -53 -14 -27 -9 -51 8 -41 5 4 9 1 9 -4 0 -6 15 -11 34
-11 25 0 36 5 39 18 3 12 6 9 12 -11 6 -24 12 -28 32 -24 13 2 26 0 29 -4 9
-15 71 -10 84 6 18 21 33 19 27 -5 -3 -11 -1 -20 4 -20 5 0 9 -6 9 -14 0 -8 8
-13 18 -12 13 1 17 -7 17 -39 0 -23 -5 -39 -11 -38 -6 1 -9 -10 -6 -27 2 -16
-1 -35 -7 -42 -6 -7 -27 -38 -47 -69 -38 -59 -96 -103 -181 -139 l-48 -21 44
6 c55 7 145 54 198 103 47 43 86 108 104 172 7 25 14 47 15 49 2 1 18 -9 37
-23 19 -14 40 -26 48 -26 8 0 33 -9 54 -20 38 -20 92 -20 105 0 3 4 17 10 31
13 19 5 31 1 45 -14 18 -21 18 -21 -18 -55 -42 -38 -41 -45 1 -15 15 11 46 27
69 37 24 9 50 26 58 38 13 17 15 17 10 3 -3 -10 -6 -23 -6 -28 0 -4 -13 -15
-30 -24 -26 -14 -28 -18 -19 -41 7 -21 6 -29 -8 -40 -10 -7 -13 -14 -7 -14 21
0 41 35 37 64 -3 22 -1 27 11 23 8 -3 16 -1 19 6 5 17 23 -21 30 -66 l6 -39
-62 -27 c-34 -15 -95 -38 -135 -51 -49 -15 -71 -27 -68 -35 5 -14 -12 -22
-104 -52 l-55 -18 54 -3 c37 -2 57 1 62 10 7 10 9 10 9 1 0 -7 5 -13 10 -13 6
0 10 7 10 15 0 14 3 15 80 4 8 -1 -1 -5 -20 -9 -25 -5 -11 -7 50 -7 54 0 72 2
50 6 -32 6 -34 7 -15 18 11 7 14 13 8 13 -27 0 -13 30 15 31 23 0 24 2 8 8
-18 7 -18 8 -2 14 32 13 48 -10 48 -70 0 -21 5 -23 49 -23 35 0 51 5 58 18 10
16 10 16 11 0 0 -23 19 -23 36 0 13 16 13 16 14 0 0 -21 16 -24 23 -5 4 10 6
10 6 0 1 -7 7 -13 15 -13 9 0 12 7 9 20 -4 16 -14 20 -44 20 -27 0 -39 4 -39
14 0 9 -17 17 -52 21 -28 4 -58 14 -66 21 -8 9 -9 14 -2 14 6 0 8 5 5 10 -3 6
3 10 15 10 13 0 24 9 30 26 7 18 15 24 26 20 8 -3 13 -2 9 3 -3 5 37 8 92 6
97 -3 103 -2 51 9 -16 4 -28 13 -28 21 0 16 65 61 123 83 34 14 39 14 57 -3
11 -10 20 -13 20 -7 0 6 -8 15 -17 21 -17 9 -17 11 2 25 15 10 22 11 27 3 10
-17 25 1 32 38 8 49 18 75 27 75 14 0 50 40 45 49 -7 11 20 11 101 -2 65 -10
71 -12 62 -29 -7 -12 -6 -25 2 -40 7 -13 12 -24 11 -25 -1 -2 0 -3 3 -3 3 0
10 0 16 0 6 0 9 7 5 15 -3 8 -1 15 4 15 6 0 10 -5 10 -12 0 -9 3 -9 13 1 10
10 9 15 -5 25 -10 7 -14 17 -10 21 4 5 -1 5 -10 2 -10 -4 -18 -2 -18 3 0 5 11
9 25 8 15 -2 24 -7 21 -15 -3 -6 6 -22 19 -35 27 -25 35 -49 10 -28 -8 7 -15
9 -16 4 0 -5 -2 -19 -5 -32 -2 -14 4 -31 16 -44 11 -12 20 -27 20 -32 0 -6 -5
-4 -11 4 -9 12 -10 12 -5 -3 3 -10 6 -23 6 -29 0 -6 6 -5 16 2 13 12 14 10 3
-13 l-12 -27 -26 29 c-14 15 -36 32 -48 35 -14 5 -23 15 -23 28 0 11 -5 18
-12 15 -7 -2 -18 5 -24 17 -10 16 -9 23 4 32 19 14 9 46 -13 38 -14 -6 -13 -8
2 -20 17 -13 17 -14 1 -8 -10 3 -18 1 -18 -5 0 -16 -16 -14 -34 4 -8 8 -19 15
-25 15 -6 0 -11 4 -11 8 0 4 -9 8 -21 8 -20 0 -20 -1 3 -18 43 -34 88 -82 88
-95 0 -8 7 -16 15 -19 8 -4 15 -12 15 -19 0 -7 8 -12 18 -11 9 0 17 -6 17 -14
0 -9 -7 -14 -19 -12 -15 3 -16 1 -5 -12 12 -13 15 -13 25 0 16 20 41 17 54 -6
8 -15 8 -20 -2 -20 -8 0 -6 -5 5 -11 9 -5 22 -7 27 -4 6 3 14 -5 19 -18 5 -13
17 -27 26 -31 14 -5 16 -14 11 -47 -4 -23 -11 -50 -17 -60 -10 -20 -44 -26
-54 -9 -4 6 -11 8 -16 5 -5 -4 -9 -1 -9 4 0 6 -5 11 -11 11 -5 0 -7 -4 -4 -10
3 -5 1 -10 -5 -10 -6 0 -9 -4 -6 -9 3 -4 96 -9 206 -10 l200 -2 0 1720 0 1721
-6155 0 -6155 0 0 -1720z m7705 1654 c33 -16 80 -36 104 -44 49 -16 69 -40 69
-89 1 -18 12 -50 27 -72 18 -28 22 -41 13 -43 -7 -3 -29 -9 -49 -15 -77 -24
-117 -106 -87 -178 6 -15 12 -33 13 -39 2 -6 11 -28 20 -48 17 -35 17 -38 1
-54 -13 -14 -20 -14 -36 -4 -11 6 -27 12 -35 12 -20 0 -20 39 0 46 8 4 15 10
15 16 0 5 -3 7 -8 4 -4 -2 -6 12 -6 32 1 20 -1 39 -5 42 -3 3 -22 36 -41 74
-42 84 -64 96 -189 97 -79 1 -88 3 -84 19 3 10 -4 24 -15 31 -12 9 -19 26 -19
48 0 19 -5 37 -11 39 -7 2 -12 15 -12 28 0 13 -6 33 -12 44 -17 27 -3 38 50
41 23 2 42 6 42 9 0 9 68 29 110 32 67 5 85 2 145 -28z m3165 -78 c30 -2 67
-5 82 -5 36 -1 118 -76 118 -108 0 -12 -4 -23 -10 -23 -21 0 -9 -47 19 -74 38
-37 35 -62 -7 -58 -18 2 -32 -1 -32 -7 0 -6 -8 -11 -18 -11 -33 0 -66 -46 -65
-90 1 -22 5 -46 10 -52 4 -7 8 -20 8 -28 1 -9 13 -33 28 -54 20 -31 24 -43 16
-58 -15 -29 -38 -33 -58 -11 -15 15 -16 24 -8 39 16 29 17 76 0 70 -8 -4 -13
2 -13 17 -1 21 -2 20 -25 -8 -14 -16 -25 -24 -25 -17 0 30 -18 8 -24 -30 -3
-24 -8 -52 -11 -63 -3 -11 0 -27 7 -36 15 -20 65 -38 54 -20 -4 6 -1 11 8 11
8 0 18 -5 21 -10 4 -6 11 -8 16 -5 5 4 9 2 9 -4 0 -6 6 -8 13 -6 6 2 22 -11
34 -30 l21 -34 -56 -6 c-56 -6 -149 -32 -166 -46 -15 -13 64 -22 89 -11 27 12
98 7 103 -8 2 -5 9 -7 17 -4 7 3 16 0 21 -7 5 -9 -3 -10 -33 -6 -28 5 -50 2
-69 -8 l-28 -14 25 -9 c13 -5 46 -6 73 -2 l48 7 -4 -52 c-3 -33 -12 -62 -26
-80 -12 -15 -22 -23 -22 -18 0 12 -49 12 -68 0 -8 -6 -20 0 -32 15 -11 13 -19
18 -20 11 0 -6 -9 -9 -22 -6 -27 7 -49 23 -44 32 5 8 -64 5 -86 -4 -11 -4 -18
-3 -18 5 0 6 -4 8 -10 5 -5 -3 -10 -2 -10 3 0 12 -50 35 -80 36 -18 1 -24 6
-22 18 2 12 -2 16 -13 12 -12 -5 -14 0 -9 24 3 16 2 38 -4 48 -6 12 -6 27 1
48 10 29 10 29 19 7 4 -12 12 -20 17 -17 5 3 11 -3 14 -14 3 -11 0 -20 -6 -20
-6 0 -7 -3 -4 -6 4 -4 12 -2 20 4 7 6 23 9 35 5 27 -7 27 -3 1 41 -12 20 -25
33 -31 30 -5 -3 -14 8 -21 25 -6 17 -14 31 -18 31 -6 0 -23 49 -21 60 0 4 -7
37 -17 75 -18 68 -18 70 1 83 16 12 22 12 37 -2 19 -18 76 -22 86 -6 8 13 88
13 101 1 13 -13 64 -22 64 -11 0 5 -5 12 -10 15 -11 7 -4 25 8 25 4 0 15 -14
25 -32 17 -29 19 -30 35 -15 15 16 14 21 -12 72 -15 30 -32 55 -37 55 -6 0 -7
5 -4 10 9 14 -68 16 -175 5 l-55 -5 -2 36 c-1 21 -6 40 -11 43 -4 3 -12 14
-15 25 -6 15 -10 16 -23 5 -13 -11 -14 -9 -9 17 13 56 16 64 30 64 7 0 15 10
19 23 3 12 17 35 31 51 13 16 22 32 19 37 -3 5 1 7 8 4 7 -2 38 -1 68 3 30 5
60 7 65 5 6 -1 35 -4 65 -7z m-9101 -100 c58 -28 63 -44 14 -48 -28 -2 -37 -7
-35 -19 1 -9 -9 -21 -22 -27 -14 -6 -30 -21 -37 -33 -11 -21 -10 -22 19 -16
17 4 34 2 37 -3 3 -6 21 -10 38 -9 l32 1 -32 9 c-32 9 -32 10 -13 29 11 11 28
20 38 20 32 0 63 -13 59 -24 -2 -6 3 -17 12 -25 9 -7 3 -6 -12 3 -32 19 -61
11 -33 -10 11 -8 13 -14 7 -19 -6 -3 -11 -22 -11 -41 0 -27 4 -34 20 -34 15 0
22 9 27 33 l7 32 9 -35 c4 -19 8 -49 7 -66 0 -25 4 -32 17 -30 36 3 16 -110
-33 -182 -13 -19 -24 -47 -24 -61 0 -20 -2 -23 -10 -11 -7 11 -11 9 -19 -13
-6 -15 -18 -27 -26 -27 -13 0 -15 9 -9 52 7 51 7 52 -32 84 -35 30 -37 34 -26
56 10 17 10 35 4 65 -5 23 -7 44 -4 47 2 3 -1 12 -7 20 -7 9 -10 25 -6 38 5
19 4 20 -5 8 -9 -12 -11 -9 -7 17 2 21 -1 34 -10 37 -17 7 -16 -4 7 -99 18
-74 18 -80 3 -98 -39 -42 -115 15 -85 64 9 14 11 37 6 76 -4 35 -3 58 4 62 6
3 0 11 -14 18 -13 6 -22 7 -19 3 3 -5 -3 -11 -12 -13 -10 -2 -8 -3 5 -2 12 1
21 -2 20 -7 -2 -5 -8 -10 -13 -10 -19 0 -33 -19 -28 -39 4 -16 9 -17 22 -8 9
6 0 -3 -19 -21 -19 -18 -29 -30 -22 -26 17 10 15 2 -8 -36 -23 -38 -26 -72 -7
-90 19 -17 -2 -38 -37 -38 -56 0 -100 -73 -69 -115 7 -11 13 -14 13 -9 0 6 6
18 13 28 13 18 15 18 54 -4 25 -15 46 -21 58 -16 17 6 17 9 5 17 -11 8 -6 9
20 5 19 -4 40 -12 45 -19 22 -27 66 -26 94 2 19 19 19 21 3 31 -15 10 -15 10
3 8 15 -2 20 -12 22 -43 2 -39 -12 -69 -28 -59 -5 3 -9 1 -9 -5 0 -5 -4 -21
-10 -36 -8 -21 -13 -24 -29 -16 -16 9 -18 7 -15 -17 2 -22 -1 -28 -16 -28 -11
0 -20 6 -20 13 0 14 -28 6 -48 -14 -18 -17 -29 -16 -36 3 -3 8 -2 12 4 9 6 -3
10 -2 10 3 0 5 -11 15 -25 22 -14 7 -25 16 -25 19 0 15 -57 67 -68 63 -7 -2
-12 2 -12 8 0 7 -8 10 -20 7 -15 -4 -20 0 -20 15 0 11 -6 26 -14 34 -8 7 -16
19 -18 25 -2 7 -15 13 -29 14 -17 1 -24 8 -24 22 0 12 -4 25 -8 29 -4 5 -5 1
-2 -8 4 -9 1 -19 -5 -23 -6 -3 -10 -3 -9 2 1 4 0 11 -1 16 -1 4 -3 10 -5 15
-2 7 -7 22 -22 60 -3 9 -8 44 -9 78 -2 34 -4 65 -5 70 -1 5 -1 28 0 52 l1 42
41 0 c32 0 40 3 38 18 -3 38 0 39 74 36 39 -2 64 -1 55 2 -10 3 -18 9 -18 14
0 12 28 20 46 13 13 -5 13 -7 2 -14 -10 -7 -11 -9 0 -9 7 0 10 -5 6 -12 -4 -6
-3 -8 4 -4 6 3 23 1 39 -5 85 -34 94 -31 50 18 -10 12 -16 27 -12 33 9 15 -13
40 -36 40 -21 0 -25 15 -8 25 20 13 105 23 149 18 25 -3 65 -15 89 -27z m3316
-46 c17 -4 26 -8 22 -9 -4 0 -3 -10 3 -20 6 -12 6 -22 1 -25 -5 -4 -8 -12 -6
-19 9 -37 18 -57 26 -57 5 0 9 -13 9 -29 0 -27 -2 -29 -53 -33 -53 -4 -105
-37 -92 -58 3 -5 0 -12 -6 -16 -20 -12 -2 -129 26 -170 29 -43 31 -61 8 -86
-17 -19 -63 -25 -63 -8 0 15 -33 12 -56 -5 -24 -18 -31 -18 -38 0 -7 19 3 45
18 45 6 0 21 16 33 35 23 34 23 34 3 45 -26 14 -32 10 -70 -47 -37 -55 -38
-102 -2 -118 12 -5 22 -12 22 -16 0 -11 -41 -43 -57 -45 -63 -9 -85 -31 -110
-103 -16 -46 -8 -52 14 -13 20 34 61 55 43 21 -9 -16 -7 -18 17 -18 16 0 51
-4 78 -9 28 -5 61 -8 75 -6 21 3 20 1 -7 -12 -35 -15 -44 -46 -19 -61 7 -4 17
-19 21 -33 4 -14 4 -22 0 -18 -11 10 -34 -22 -35 -47 -1 -11 -4 -14 -7 -7 -2
6 -9 10 -14 6 -5 -3 -9 0 -9 6 0 7 -8 9 -20 5 -12 -4 -20 -2 -20 5 0 8 -6 8
-20 0 -14 -7 -20 -7 -20 0 0 6 -16 18 -35 27 -19 9 -35 21 -35 26 0 4 -9 6
-19 2 -17 -5 -18 -1 -14 30 3 20 0 35 -6 35 -5 0 -13 9 -16 20 -3 11 -12 20
-18 20 -7 0 -28 14 -46 31 -27 24 -34 39 -35 70 -1 22 1 42 5 45 10 6 3 65 -8
73 -6 3 -9 31 -8 61 1 35 -3 60 -12 68 -15 16 -17 41 -4 61 8 12 12 10 22 -12
14 -30 19 -32 38 -14 9 7 11 7 8 1 -11 -19 23 -25 40 -8 10 10 26 14 42 11 14
-3 35 -1 46 3 16 7 17 9 3 9 -16 1 -16 3 0 30 14 25 20 28 36 19 18 -10 18
-12 4 -22 -11 -8 -14 -17 -8 -26 6 -10 13 -9 32 6 14 11 23 25 20 33 -3 10 0
11 9 5 8 -5 20 -9 27 -10 22 -4 24 -11 12 -33 -8 -17 -8 -21 3 -21 8 0 20 7
27 15 15 18 0 63 -31 91 -14 12 -16 21 -9 35 6 10 10 20 10 22 0 7 -101 35
-145 41 -63 7 -84 16 -78 32 4 10 0 12 -13 8 -11 -4 -25 -11 -31 -17 -9 -6
-15 -4 -19 9 -3 11 -9 28 -13 39 -9 24 -3 48 10 39 5 -3 9 -1 9 5 0 6 21 8 53
5 58 -4 141 9 202 33 65 26 193 37 250 23z m2460 -90 c3 -5 -3 -10 -13 -10
-34 0 -88 -28 -106 -55 -16 -24 -16 -25 3 -25 11 0 26 -3 35 -6 11 -4 16 0 16
13 0 10 5 24 12 31 9 9 17 4 35 -20 13 -18 23 -27 23 -21 0 8 7 8 24 0 13 -7
22 -16 19 -22 -3 -5 4 0 16 12 11 12 21 27 21 33 0 15 16 12 30 -5 10 -12 10
-19 2 -27 -20 -20 -13 -32 6 -15 10 10 21 17 25 17 8 0 2 -43 -9 -60 -16 -26
-36 -84 -38 -110 -1 -19 7 -29 31 -40 18 -8 33 -23 33 -32 0 -24 17 -31 25
-11 3 10 1 19 -4 21 -15 5 -14 22 2 22 27 0 50 -27 52 -63 l3 -37 -58 0 c-37
0 -60 5 -63 13 -4 7 -6 6 -6 -5 -1 -23 -19 -26 -59 -12 -51 17 -70 9 -70 -32
0 -38 4 -41 29 -18 15 13 24 14 53 4 19 -6 53 -11 74 -12 39 0 39 -1 21 -19
-24 -24 -24 -40 -1 -59 22 -19 52 -24 52 -10 0 6 5 8 10 5 6 -3 10 1 10 9 0
19 13 27 29 17 18 -12 3 -64 -17 -56 -11 4 -12 2 -4 -8 7 -8 7 -18 2 -27 -6
-9 -10 -10 -10 -3 0 6 -9 11 -20 10 -11 -1 -20 -5 -20 -9 0 -16 -20 -7 -21 10
-1 15 -2 15 -6 1 -5 -20 -40 -32 -46 -15 -3 8 -8 8 -17 0 -13 -13 -50 -7 -50
8 0 6 -6 8 -14 5 -15 -6 -46 22 -46 40 0 16 -36 22 -51 9 -8 -6 -10 -7 -6 -2
4 5 1 16 -5 24 -7 8 -11 29 -9 47 2 28 -1 32 -21 31 -20 -1 -23 3 -20 32 l2
33 -23 -27 -24 -27 -7 53 c-4 29 -14 66 -22 81 -7 15 -16 47 -18 71 -3 24 -5
43 -6 43 -1 0 -3 11 -4 25 -2 14 -4 30 -6 35 -6 23 1 66 10 60 6 -3 10 0 10 8
0 17 21 27 56 27 13 0 24 4 24 9 0 5 8 12 18 15 9 4 33 13 52 21 43 17 47 18
55 5z m328 -59 c2 -11 15 -21 28 -23 l24 -5 -25 -11 c-14 -6 -19 -11 -12 -11
15 -1 67 -39 67 -49 1 -4 6 -17 13 -29 13 -23 7 -73 -9 -73 -5 0 -9 -7 -9 -17
0 -9 -7 -33 -17 -54 -13 -30 -21 -37 -40 -35 -30 3 -56 26 -30 26 16 0 16 3 3
28 -8 15 -16 50 -17 77 -2 34 -12 65 -31 95 -26 41 -27 45 -11 52 10 3 14 7 9
7 -13 1 25 41 39 41 7 0 15 -9 18 -19z m-814 -82 l8 -44 8 48 c4 26 11 47 15
47 5 0 18 -12 29 -26 l21 -26 -21 -29 c-16 -23 -17 -29 -5 -29 8 0 18 5 22 11
9 15 24 -9 24 -39 0 -19 -4 -22 -22 -18 -13 3 -4 -3 20 -15 23 -11 42 -26 42
-34 0 -7 3 -20 6 -29 5 -12 -1 -16 -24 -16 -36 0 -124 82 -115 107 3 8 2 18
-3 22 -24 17 -44 98 -27 114 10 10 13 4 22 -44z m4006 -39 c-3 -6 1 -7 9 -4 9
4 18 -1 22 -10 3 -9 12 -16 19 -16 26 0 36 -65 18 -110 -6 -14 -9 -28 -6 -33
9 -15 -8 -65 -24 -71 -24 -10 -53 28 -53 67 0 19 -7 54 -15 77 -18 51 -19 64
-3 54 7 -4 8 -3 4 5 -11 17 3 51 20 51 8 0 12 -4 9 -10z m-5995 -100 c-11 -7
-4 -11 28 -16 23 -3 39 -11 36 -16 -3 -5 -13 -7 -21 -4 -9 4 -13 1 -10 -6 2
-7 13 -12 25 -11 11 1 26 -4 32 -12 7 -8 19 -15 28 -15 11 0 9 -5 -8 -20 -13
-11 -18 -20 -12 -20 5 0 16 -22 23 -50 7 -27 16 -50 19 -50 12 0 -17 -152 -31
-161 -8 -5 -11 -9 -7 -9 14 0 -25 -76 -51 -101 -16 -14 -30 -31 -32 -37 -7
-20 -64 5 -77 32 -9 20 -7 26 19 45 16 12 29 27 29 34 0 7 9 23 19 37 16 20
22 22 34 12 12 -10 16 -10 20 0 3 8 6 6 6 -5 1 -25 21 -11 21 15 0 28 -22 88
-32 88 -4 0 -23 14 -42 31 -31 27 -34 33 -24 55 8 18 8 34 0 61 -14 44 -11 48
20 33 15 -8 12 -3 -9 15 -32 25 -47 63 -20 50 6 -4 3 0 -7 9 -10 8 -23 13 -27
10 -5 -3 -9 0 -9 5 0 6 17 11 38 11 27 0 33 -3 22 -10z m2240 -330 c-5 -3 6
-12 25 -20 19 -7 37 -22 40 -31 4 -10 15 -21 26 -24 10 -4 19 -10 19 -15 0
-17 69 -62 82 -53 7 4 36 9 63 10 37 2 57 -2 77 -17 15 -11 32 -20 37 -20 6 0
8 -7 5 -15 -10 -25 13 -17 34 12 25 34 52 26 52 -16 0 -16 -16 -59 -36 -95
-35 -66 -35 -66 -12 -66 26 0 88 51 88 73 0 7 9 23 19 34 11 12 17 24 13 29
-4 4 -1 4 6 0 9 -5 10 -12 3 -20 -5 -6 -11 -30 -12 -53 -2 -36 -5 -40 -20 -30
-14 9 -21 6 -37 -13 -13 -16 -33 -25 -70 -30 -29 -3 -55 -4 -58 -1 -3 3 -18 6
-34 7 -20 1 -30 -4 -33 -18 -4 -14 -12 -19 -29 -16 -19 2 -23 9 -21 33 1 17
-1 41 -3 53 -7 33 -31 11 -40 -35 -6 -32 -8 -34 -18 -17 -6 10 -18 20 -26 22
-8 2 -19 8 -25 14 -7 8 -6 9 3 4 24 -14 11 3 -20 25 -29 21 -31 22 -25 3 7
-18 6 -18 -7 -1 -7 9 -18 17 -25 17 -6 0 -11 8 -11 18 0 9 -5 24 -11 32 -10
13 -10 13 -6 0 3 -10 -2 -16 -14 -16 -13 0 -19 7 -19 24 0 17 -4 22 -14 19 -9
-4 -13 -1 -10 7 3 7 -7 25 -21 40 -31 34 -33 57 -2 29 12 -11 31 -25 43 -31
20 -11 20 -9 13 36 -4 26 -8 69 -8 96 -1 43 1 47 14 36 10 -9 12 -16 5 -20z
m-5949 -70 c5 0 9 -4 9 -10 0 -5 -7 -6 -17 -3 -11 4 -14 3 -9 -6 5 -7 15 -10
23 -7 8 3 27 -1 42 -9 16 -8 31 -12 34 -9 10 10 118 -17 111 -28 -4 -6 2 -6
15 1 11 7 36 11 53 11 18 -1 52 2 76 6 36 6 42 4 42 -11 0 -14 3 -15 15 -5 8
7 15 9 15 5 0 -4 6 -2 14 5 12 9 15 8 15 -7 1 -10 4 -34 7 -55 5 -32 2 -40
-34 -76 -61 -61 -129 -82 -266 -82 -120 0 -184 13 -269 56 -47 24 -48 25 -41
62 4 20 12 48 19 62 7 14 18 39 25 56 9 25 16 30 36 26 13 -2 24 0 24 7 0 6 7
8 17 4 12 -5 14 -3 8 7 -6 10 -4 12 9 7 10 -4 22 -7 27 -7z m9249 -56 c38 -25
77 -44 87 -43 10 2 34 -2 53 -9 19 -6 59 -16 89 -22 30 -5 60 -15 68 -21 29
-25 8 -158 -33 -203 -14 -14 -27 -35 -29 -46 -7 -34 -15 -42 -32 -28 -13 10
-18 8 -34 -11 -17 -21 -47 -21 -33 0 3 5 10 7 15 4 13 -8 11 9 -2 22 -7 7 -3
9 15 6 21 -4 25 -2 20 10 -8 23 -32 28 -57 14 -28 -15 -37 -28 -30 -42 3 -5 0
-5 -6 1 -10 9 -10 17 -2 33 14 26 -6 64 -29 56 -8 -4 -11 -3 -7 1 9 9 -51 46
-64 39 -5 -4 -9 -1 -9 4 0 6 -10 11 -22 11 -12 0 -19 3 -15 6 6 6 -28 44 -41
44 -4 0 -13 9 -20 21 -12 18 -11 19 6 10 18 -10 19 -6 22 62 1 40 2 79 2 87 0
21 6 40 14 40 3 0 37 -21 74 -46z m-3360 -151 c0 -3 -7 -14 -15 -23 -13 -15
-12 -16 15 -14 17 1 33 -2 36 -7 3 -5 10 -6 16 -3 7 4 8 2 4 -4 -5 -8 0 -12
13 -12 11 0 24 -8 29 -17 6 -9 24 -18 43 -19 20 -1 39 -11 49 -25 10 -12 22
-19 29 -15 6 4 11 1 11 -8 0 -9 -5 -16 -11 -16 -5 0 -8 -4 -5 -8 6 -10 -12
-83 -24 -96 -9 -9 -151 106 -220 180 -25 26 -38 43 -29 36 13 -10 18 -6 29 23
12 31 30 48 30 28z m2942 -90 c-9 -4 -10 -8 -2 -18 9 -11 7 -12 -9 -8 -13 3
-21 1 -21 -6 0 -7 5 -9 10 -6 6 3 10 1 10 -4 0 -16 19 -13 36 4 9 8 20 15 26
15 6 0 -1 -11 -16 -23 -18 -16 -28 -35 -30 -58 -4 -44 12 -79 32 -72 12 5 14
1 10 -20 -3 -15 -2 -27 2 -27 14 0 20 32 14 68 -6 30 -4 34 10 29 9 -4 16 -2
16 3 0 6 -5 10 -11 10 -5 0 -7 5 -3 11 4 8 12 3 20 -12 10 -19 13 -20 14 -6 0
9 4 17 9 17 11 0 26 -39 23 -57 -2 -7 2 -13 8 -13 6 0 9 4 6 9 -3 5 1 12 10
15 9 4 14 13 10 21 -8 22 11 18 27 -5 8 -11 16 -17 19 -15 3 3 24 0 46 -8 22
-8 46 -10 54 -6 10 5 15 3 15 -5 0 -8 -6 -12 -12 -10 -6 3 -12 -2 -12 -11 0
-17 32 -21 42 -5 3 6 11 10 18 10 6 0 3 -6 -7 -13 -16 -12 -13 -16 38 -50 31
-21 56 -44 56 -53 0 -10 6 -14 14 -11 18 7 36 -11 29 -29 -3 -8 0 -14 6 -14 6
0 11 6 12 13 0 17 42 -70 57 -119 18 -61 16 -74 -13 -74 -24 0 -24 -1 -11 -38
l14 -39 -33 2 c-32 3 -33 1 -24 -22 13 -35 11 -38 -10 -19 -14 13 -21 14 -27
5 -5 -8 -3 -10 6 -4 9 6 11 4 6 -4 -5 -7 -14 -10 -22 -7 -12 4 -12 2 -3 -15
10 -19 8 -20 -21 -15 -27 4 -30 3 -18 -11 7 -9 11 -25 10 -37 -3 -17 -1 -18
11 -8 20 17 25 2 22 -68 -2 -40 0 -49 6 -32 4 12 11 22 15 22 3 0 4 -7 0 -15
-3 -8 0 -15 7 -15 7 -1 1 -8 -13 -16 l-25 -15 33 5 c19 3 32 1 32 -5 0 -6 -4
-7 -10 -4 -5 3 -10 2 -10 -3 0 -6 -10 -8 -22 -6 -21 4 -21 4 -3 -5 11 -4 23
-7 28 -4 4 2 7 0 7 -6 0 -5 -5 -11 -11 -13 -8 -3 -6 -10 5 -21 10 -9 13 -17 7
-17 -6 0 -11 -7 -11 -15 0 -8 5 -14 11 -12 18 4 34 -54 18 -64 -8 -4 -16 -4
-20 2 -4 7 -9 4 -12 -5 -6 -14 8 -21 34 -18 4 1 9 -17 11 -38 2 -22 1 -40 -3
-40 -3 0 -3 -14 -1 -31 3 -21 1 -30 -6 -25 -6 4 -10 -2 -9 -14 2 -24 1 -24 32
-4 14 9 25 15 26 13 1 -2 2 -16 3 -30 2 -14 6 -31 10 -37 4 -7 2 -12 -3 -12
-6 0 -11 7 -11 15 0 8 -4 15 -10 15 -5 0 -10 8 -11 18 -1 11 -4 9 -9 -8 -4
-14 -8 -19 -9 -12 -1 6 -9 12 -18 12 -15 0 -14 -2 3 -14 19 -14 21 -23 26
-108 2 -25 6 -44 11 -41 4 2 7 -4 7 -15 0 -26 -24 -23 -37 5 -7 15 -8 23 -1
23 7 0 6 5 -1 13 -6 8 -7 18 -3 22 4 5 1 5 -5 1 -9 -5 -13 2 -13 23 0 18 -5
31 -12 31 -9 0 -9 3 1 9 11 7 10 11 -6 22 -11 6 -18 19 -16 28 6 24 -15 73
-27 66 -8 -5 -8 -11 -1 -19 6 -7 8 -16 4 -19 -3 -4 0 -13 7 -22 10 -12 10 -15
-2 -15 -20 0 -40 64 -24 80 8 8 7 9 -6 5 -10 -4 -18 -12 -19 -19 -3 -34 5 -63
23 -81 11 -11 18 -14 14 -7 -5 7 -1 12 9 12 9 0 14 -4 11 -8 -3 -5 4 -19 15
-31 14 -15 19 -31 16 -47 -2 -13 1 -28 7 -32 8 -4 9 -18 5 -37 -4 -16 -7 -23
-8 -14 0 9 -7 29 -15 43 -13 25 -14 25 -19 6 -3 -11 1 -27 9 -35 16 -15 2 -31
-18 -19 -6 4 -8 3 -5 -3 3 -5 -16 -16 -44 -23 -28 -8 -52 -18 -55 -22 -3 -4
-16 -8 -30 -8 -18 0 -27 8 -34 28 -6 15 -14 34 -19 43 -12 20 -43 178 -37 187
2 4 -3 41 -11 82 -8 41 -15 83 -16 93 -1 9 -5 17 -9 17 -4 0 -8 13 -8 29 0 17
-4 32 -9 35 -5 4 -12 24 -16 45 -4 22 -17 47 -31 60 -27 24 -33 57 -9 47 13
-5 15 0 9 30 -3 19 -7 61 -9 92 -3 85 -17 182 -26 188 -5 3 -8 -37 -7 -88 2
-51 1 -105 -2 -120 -4 -25 -6 -26 -21 -12 -9 8 -16 26 -15 39 2 13 -1 29 -5
37 -6 10 -9 8 -10 -7 0 -11 -7 2 -15 28 -8 26 -19 45 -24 42 -10 -6 -35 33
-26 42 3 3 -1 12 -9 20 -8 8 -15 23 -15 34 0 10 -4 19 -10 19 -5 0 -10 7 -10
15 0 8 -4 15 -10 15 -5 0 -10 9 -10 19 0 11 -5 23 -10 26 -6 4 -8 11 -5 16 4
5 2 9 -3 9 -6 0 -9 14 -8 31 1 19 -4 35 -15 42 -9 7 -27 31 -39 55 -12 23 -26
45 -31 48 -5 3 -7 8 -5 12 2 4 -8 16 -22 26 -15 11 -22 14 -16 5 4 -8 9 -21
11 -29 1 -8 7 -16 12 -18 6 -2 11 -8 11 -12 0 -5 11 -26 25 -46 14 -20 22 -40
20 -44 -3 -5 -1 -11 4 -15 6 -3 8 -11 5 -18 -2 -7 8 -31 24 -53 40 -56 105
-194 141 -301 33 -98 37 -118 21 -108 -5 3 -10 15 -10 26 0 27 -29 81 -40 74
-5 -3 -5 -18 0 -35 6 -20 4 -32 -5 -40 -10 -8 -15 4 -26 57 -7 38 -12 73 -11
79 1 7 -16 65 -39 130 -39 112 -45 121 -112 191 -39 40 -75 73 -81 73 -6 0
-26 13 -45 29 -25 21 -31 30 -21 36 8 5 11 4 7 -2 -4 -6 0 -14 9 -17 9 -3 12
-2 9 5 -4 6 0 18 9 27 8 10 12 23 7 30 -6 10 -17 8 -51 -7 -33 -15 -38 -20
-24 -24 11 -3 2 -4 -18 -3 -22 0 -33 5 -28 10 14 14 112 46 121 40 5 -3 9 0 9
6 0 7 7 10 15 6 8 -3 14 0 12 6 -1 6 12 15 28 18 29 7 204 81 235 100 8 5 20
9 25 9 6 0 4 -3 -3 -6z m1042 -151 c33 -28 52 -53 108 -139 29 -46 57 -83 61
-83 11 0 -3 44 -14 48 -5 2 -9 12 -9 22 0 10 -5 22 -10 25 -6 4 -8 11 -5 16 4
5 -2 9 -12 9 -10 0 -26 12 -36 25 -21 29 -20 30 26 10 44 -18 50 -19 41 -3 -4
7 -3 8 5 4 6 -4 9 -12 6 -17 -4 -5 -4 -9 -1 -9 2 0 12 -3 22 -7 12 -4 15 -3
10 5 -5 8 -2 10 9 6 14 -6 14 -8 -2 -20 -15 -11 -16 -13 -2 -14 20 0 89 -68
89 -87 0 -8 4 -12 8 -9 4 2 14 1 22 -5 11 -6 12 -9 2 -9 -8 0 -10 -5 -5 -12 4
-7 6 -21 5 -30 -5 -26 15 -22 24 4 6 19 7 19 16 5 10 -19 2 -40 -13 -32 -5 4
-9 3 -9 -2 0 -4 -3 -18 -6 -31 -6 -19 -3 -23 12 -20 16 2 20 -4 22 -42 2 -25
0 -42 -4 -38 -3 4 -20 0 -36 -8 -33 -17 -42 -11 -73 53 -9 18 -21 35 -28 39
-9 6 -9 4 -1 -7 10 -12 21 -46 30 -86 1 -7 -2 -15 -7 -19 -5 -3 -9 1 -9 8 0 7
-16 31 -35 53 -34 39 -45 41 -25 5 9 -17 23 -100 17 -100 -2 0 -18 20 -37 45
-19 25 -38 45 -42 45 -5 0 -6 -5 -2 -12 15 -24 13 -58 -4 -68 -10 -5 -12 -10
-4 -10 6 0 12 -4 12 -10 0 -5 -6 -7 -13 -4 -8 3 -14 -2 -14 -10 0 -8 4 -13 9
-10 4 3 8 1 8 -5 0 -6 -10 -15 -21 -22 -20 -10 -21 -9 -16 10 3 11 1 21 -5 21
-11 0 -7 -41 7 -72 5 -14 3 -18 -11 -17 -12 0 -14 3 -6 6 9 3 10 9 3 17 -15
18 -23 74 -11 81 13 8 13 25 -1 25 -5 0 -7 -4 -4 -10 3 -5 -1 -10 -9 -10 -10
0 -16 9 -16 23 0 13 -6 24 -13 24 -7 0 -18 -11 -24 -24 -9 -18 -8 -23 3 -23
12 0 14 -12 9 -61 -3 -33 -2 -58 3 -55 4 2 8 -3 9 -12 4 -72 16 -168 21 -173
4 -3 25 -11 47 -17 22 -5 70 -21 106 -35 88 -32 159 -43 170 -25 6 10 11 10
21 0 15 -15 -6 -109 -64 -274 -42 -122 -82 -184 -99 -157 -7 11 -9 11 -9 -3 0
-10 -7 -18 -15 -18 -8 0 -14 6 -12 13 1 6 -4 11 -11 9 -7 -1 -15 5 -19 14 -10
27 -45 32 -118 17 -39 -8 -76 -14 -82 -13 -37 1 -42 4 -38 24 52 243 86 451
75 454 -14 5 -12 42 3 42 7 0 8 3 2 8 -17 12 -18 42 0 36 9 -4 15 0 15 10 0 9
-6 13 -14 10 -8 -3 -17 0 -21 5 -3 6 -11 9 -16 6 -5 -4 -6 2 -2 12 6 16 5 16
-10 4 -10 -8 -20 -11 -24 -7 -3 3 -1 6 6 6 7 0 11 7 8 14 -4 11 -1 13 11 8 15
-5 15 -3 -1 23 l-18 30 20 -22 c24 -28 31 -29 26 -3 -2 13 0 18 7 14 7 -5 8 6
4 32 -4 22 -10 59 -14 84 -4 25 -11 43 -17 40 -5 -3 -9 -11 -8 -19 1 -9 -2
-10 -10 -2 -6 6 -10 35 -8 65 2 41 -1 55 -13 59 -9 4 -16 12 -16 18 0 9 4 8
14 0 11 -10 14 -9 11 1 -9 40 -18 57 -26 52 -5 -3 -9 9 -9 25 0 17 5 31 11 31
6 0 9 -9 6 -20 -3 -13 0 -20 9 -20 17 0 17 -1 3 38 -6 18 -15 30 -19 27 -9 -6
-20 18 -20 45 0 13 5 17 20 13 12 -3 20 0 20 7 0 7 8 9 19 5 28 -8 21 18 -13
58 -58 65 -61 114 -4 61 l32 -29 -22 29 c-34 45 -29 56 20 44 24 -5 52 -17 62
-26z m-388 -14 c4 -7 3 -8 -5 -4 -6 4 -18 2 -26 -4 -17 -14 -20 -76 -5 -85 6
-4 7 -12 3 -18 -7 -11 -9 -33 -3 -47 1 -3 4 -16 6 -29 6 -33 7 -33 38 -22 21
9 26 8 26 -4 0 -9 -10 -15 -24 -15 -43 0 -50 -57 -8 -62 l27 -4 -28 -14 c-27
-13 -28 -14 -8 -22 24 -9 29 -45 6 -45 -9 0 -14 6 -11 14 3 7 1 13 -4 13 -6 0
-10 -13 -10 -28 0 -21 7 -32 27 -41 14 -7 29 -8 32 -4 8 12 51 14 51 3 0 -5 2
-14 5 -22 3 -8 -3 -13 -20 -14 -14 -1 -25 2 -25 7 0 5 -10 7 -22 5 -13 -3 -28
-5 -34 -5 -6 -1 -11 -8 -11 -16 0 -12 8 -14 29 -11 19 3 28 0 28 -9 0 -7 -6
-13 -12 -12 -42 1 -43 -1 -41 -85 3 -122 -6 -74 -16 87 -5 77 -14 160 -21 185
-20 72 -47 230 -41 236 3 3 6 13 6 22 0 10 7 16 18 16 9 -1 17 4 17 10 0 29
42 47 56 24z m-9649 -32 c-6 -15 18 -164 35 -216 6 -19 22 -43 35 -53 23 -19
22 -43 -2 -33 -10 3 -12 -11 -9 -62 1 -37 1 -56 -2 -42 -3 14 -9 36 -13 50 -5
14 -15 45 -22 70 -7 25 -34 88 -60 140 -43 85 -46 96 -31 104 9 6 25 20 35 33
20 25 42 31 34 9z m8573 -21 c7 -8 16 -12 21 -9 11 7 48 -13 79 -43 18 -19 21
-26 11 -32 -9 -6 -10 -11 -3 -15 6 -3 13 -2 17 4 3 5 11 10 18 10 6 0 2 -7
-10 -15 -14 -10 -32 -13 -48 -9 -37 9 -31 -1 15 -27 34 -19 38 -24 24 -32 -13
-7 -21 -5 -29 7 -7 9 -15 16 -18 16 -9 0 4 -32 20 -52 8 -9 12 -22 7 -29 -4
-8 -3 -10 4 -5 7 4 12 1 12 -8 0 -8 -9 -18 -20 -21 -24 -8 -25 -21 -5 -41 17
-18 20 -44 4 -44 -5 0 -7 -4 -4 -10 10 -16 -16 -11 -64 10 -54 25 -60 25 -30
0 13 -11 29 -24 36 -30 7 -5 15 -10 18 -10 3 0 18 -11 33 -25 15 -14 22 -25
15 -25 -6 0 -13 5 -15 12 -3 7 -11 9 -24 3 -17 -7 -17 -8 -1 -12 10 -3 17 -14
17 -29 0 -14 4 -23 10 -19 5 3 7 12 3 20 -6 17 23 20 47 5 13 -8 12 -10 -3
-10 -22 0 -19 -31 3 -37 13 -4 13 -3 0 6 -13 9 -13 11 1 11 9 0 19 -10 22 -21
5 -20 3 -21 -43 -17 -54 5 -160 53 -160 72 0 6 -9 12 -20 12 -11 0 -20 -5 -20
-10 0 -19 -70 59 -89 99 -24 49 -32 131 -13 128 6 -2 13 2 13 7 2 14 3 19 19
68 7 23 19 42 26 42 7 0 15 18 19 40 6 38 9 40 48 47 23 3 36 8 29 11 -6 2
-12 8 -12 13 0 14 26 11 40 -6z m-9035 -74 c2 -11 0 -21 -5 -21 -5 0 -12 -17
-15 -37 -8 -53 -44 -172 -61 -208 l-15 -30 6 28 c3 15 1 27 -5 27 -5 0 -10 -9
-10 -19 0 -11 -7 -27 -16 -35 -14 -15 -14 -17 0 -22 9 -3 13 -11 10 -16 -4 -6
-10 -5 -15 3 -6 10 -9 11 -9 2 0 -7 -4 -13 -10 -13 -5 0 -10 10 -10 23 0 13
-4 27 -9 33 -5 5 -12 33 -15 62 -6 50 -5 53 14 47 24 -8 26 1 5 21 -12 12 -15
12 -15 2 0 -8 -4 -6 -11 5 -13 22 -1 67 12 46 7 -11 11 -11 17 -2 4 7 13 9 21
4 16 -10 1 -97 -17 -93 -7 1 -12 -5 -12 -14 0 -8 5 -12 11 -8 6 3 15 0 20 -7
6 -11 9 -11 13 1 2 8 12 39 21 68 9 28 21 52 26 52 5 0 9 9 9 20 0 21 16 55
38 78 6 7 12 18 12 24 0 18 10 3 15 -21z m11036 -210 c7 -16 6 -28 -3 -39 -11
-13 -10 -14 9 -8 18 6 22 3 20 -14 -1 -12 -6 -19 -14 -16 -7 3 -13 0 -13 -6 0
-6 -3 -8 -6 -5 -4 4 -16 -4 -28 -17 -41 -46 -77 -41 -55 8 14 29 19 31 39 14
8 -7 6 -3 -4 9 -18 22 -19 22 -35 4 -21 -24 -41 -6 -31 29 4 14 6 35 5 47 -1
18 1 20 12 11 11 -9 16 -9 23 1 5 9 10 10 14 2 4 -6 13 -11 19 -11 8 0 8 3 2
8 -5 4 -10 24 -11 45 l-1 39 24 -39 c13 -21 29 -49 34 -62z m-10973 40 c2 -6
0 -11 -5 -11 -5 0 -8 -15 -6 -32 1 -18 -3 -67 -9 -108 -6 -41 -13 -95 -17
-120 -5 -31 -11 -44 -20 -42 -12 3 -12 0 -2 -12 10 -12 9 -20 -4 -40 -10 -14
-22 -23 -29 -20 -6 3 -3 -1 7 -9 18 -15 24 -32 7 -22 -5 3 -10 -1 -10 -9 0 -9
-8 -16 -19 -16 -11 0 -23 -5 -27 -12 -11 -18 -22 21 -18 67 4 43 16 145 20
158 1 4 2 20 3 36 0 16 7 36 14 43 6 7 14 31 15 53 2 23 13 50 25 63 12 13 15
22 8 22 -7 0 -9 5 -4 13 4 6 6 21 4 31 -3 18 -1 18 30 -2 19 -12 35 -26 37
-31z m7513 -38 c6 -32 19 -83 27 -113 9 -30 15 -59 14 -63 -1 -4 -2 -18 -2
-30 0 -145 -2 -154 -29 -138 -23 15 -54 401 -32 401 5 0 15 -26 22 -57z
m-6403 -169 c16 -11 22 -24 20 -40 -4 -36 -23 -34 -26 4 -4 39 -11 40 -44 5
-34 -37 -48 -66 -48 -100 0 -57 35 -70 61 -22 9 18 9 21 -3 16 -18 -6 -45 9
-34 20 4 4 30 8 57 8 38 0 50 4 55 18 3 9 14 21 24 27 23 12 36 -2 45 -50 5
-27 2 -42 -12 -59 -26 -31 -61 -21 -70 20 -7 37 -16 37 -30 -1 -15 -40 -57
-56 -89 -35 -50 33 -39 121 21 174 41 36 43 36 73 15z m-188 -34 c0 -18 -13
-44 -35 -70 -36 -43 -46 -80 -21 -80 8 0 22 10 30 22 9 12 19 19 22 15 11 -10
-37 -57 -57 -57 -10 0 -21 5 -24 10 -4 7 -11 8 -18 2 -10 -8 -182 -10 -197 -2
-3 1 -9 1 -15 0 -5 -1 -36 -4 -69 -5 -43 -3 -55 0 -47 8 6 6 11 27 11 47 0 26
-3 31 -10 20 -14 -22 -12 -7 5 34 8 20 19 36 25 36 5 0 10 -28 12 -62 l3 -63
16 35 c23 48 46 76 55 67 4 -4 -2 -28 -15 -53 -26 -56 -19 -70 15 -29 57 69
65 77 71 71 3 -3 -5 -26 -18 -50 -13 -25 -20 -48 -16 -52 9 -10 47 25 47 44 0
7 15 29 33 47 25 25 41 33 60 31 41 -4 42 -12 17 -66 -13 -27 -20 -53 -16 -57
11 -11 46 35 46 59 0 10 10 38 21 61 40 79 69 95 69 37z m9637 -12 c-3 -13 0
-31 8 -41 13 -18 13 -18 18 0 3 10 5 -4 6 -31 1 -42 3 -47 16 -36 13 11 14 10
9 -4 -4 -10 -16 -22 -28 -26 -17 -7 -18 -9 -3 -9 13 -1 17 -10 17 -41 0 -35
-3 -40 -22 -41 -22 -1 -22 -1 2 -8 27 -7 18 -18 -15 -17 -13 1 -19 7 -19 18 1
10 -2 15 -7 12 -5 -3 -12 2 -15 10 -3 9 -11 13 -16 10 -7 -4 -7 0 0 12 5 11 8
29 7 42 -1 12 3 22 8 22 6 0 1 8 -10 18 -11 9 -18 23 -16 30 3 6 -1 12 -8 12
-7 0 -9 3 -6 6 4 4 14 1 24 -7 9 -8 14 -9 10 -3 -4 7 0 15 9 18 11 4 18 -1 21
-14 3 -11 10 -20 15 -20 6 0 4 10 -5 23 -8 12 -20 21 -25 20 -14 -3 -5 49 10
58 19 13 21 11 15 -13z m-11074 -105 c5 -30 -11 -49 -27 -33 -15 15 -26 12
-20 -4 3 -8 17 -17 30 -20 28 -7 46 -43 33 -68 -7 -13 -5 -15 14 -11 13 3 18
1 12 -4 -12 -9 -12 -44 -1 -62 4 -6 1 -11 -6 -11 -8 -1 -6 -6 6 -15 18 -14 18
-15 2 -15 -9 0 -15 -4 -12 -9 3 -5 17 -8 31 -8 14 0 31 -6 39 -12 19 -16 59
-102 58 -123 0 -10 3 -18 7 -18 14 0 32 -55 35 -104 2 -26 6 -49 9 -52 3 -4 0
-13 -8 -21 -17 -16 -20 -37 -5 -28 6 3 10 1 10 -4 0 -6 -7 -11 -16 -11 -14 0
-14 -3 -4 -15 9 -11 9 -15 1 -15 -7 0 -9 -4 -6 -10 3 -5 0 -10 -8 -10 -19 0
-54 40 -62 72 -4 15 -13 29 -20 32 -16 6 -63 84 -81 134 -10 27 -13 31 -14 15
-1 -48 98 -261 146 -314 8 -9 11 -19 7 -22 -3 -4 -1 -7 5 -7 7 0 12 -11 12
-24 0 -14 5 -28 10 -31 6 -3 10 -26 10 -49 0 -55 -18 -72 -60 -58 -23 9 -38 8
-63 -4 l-32 -15 32 4 c18 2 30 0 27 -4 -2 -4 6 -11 18 -15 26 -8 48 -28 48
-43 0 -6 7 -11 16 -11 33 0 1 -20 -34 -21 -32 -1 -34 -2 -12 -8 44 -12 30 -35
-25 -43 -27 -4 -61 -9 -75 -12 -14 -3 -65 -8 -114 -11 -86 -4 -133 6 -121 26
4 5 1 9 -4 9 -18 0 -12 29 9 50 11 11 20 24 20 29 0 5 5 11 12 13 24 8 -3 28
-29 22 -18 -5 -24 -3 -19 5 4 6 14 11 22 11 9 0 14 7 12 18 -2 9 -8 16 -13 14
-12 -5 -23 28 -17 51 5 19 13 19 70 2 15 -5 22 -3 22 7 0 7 -11 15 -26 16 -33
3 -70 22 -56 31 6 3 9 22 8 41 -1 19 2 40 8 47 37 42 37 43 19 43 -12 0 -14 3
-6 8 6 4 10 20 9 36 -4 31 13 87 29 98 6 5 6 8 -1 8 -7 0 -9 10 -6 25 2 14 8
22 13 19 5 -3 7 -10 4 -15 -6 -8 17 -13 30 -6 8 3 35 -53 35 -74 0 -19 55 -79
72 -79 5 0 20 -10 34 -23 22 -21 23 -25 10 -36 -10 -8 -42 -13 -86 -12 -42 1
-69 -3 -65 -8 3 -6 13 -10 23 -10 22 -1 105 -16 157 -30 22 -5 41 -8 43 -6 8
7 -9 25 -24 25 -8 0 -12 5 -9 10 3 6 -1 13 -9 16 -9 3 -14 10 -11 14 5 8 -23
87 -39 110 -43 59 -105 249 -82 251 6 0 6 3 -1 6 -8 3 -13 23 -13 52 0 26 -5
52 -11 58 -8 8 -5 17 12 34 17 17 18 21 5 16 -14 -6 -16 -3 -11 13 4 11 2 20
-4 20 -16 0 -13 36 4 54 11 10 12 17 4 22 -8 5 -7 9 2 14 10 7 10 12 -1 25
-12 15 -12 18 4 27 15 8 16 12 5 19 -10 6 -7 10 11 18 36 14 37 14 43 -16z
m10761 -89 c-6 -33 -5 -36 14 -30 17 6 20 3 18 -17 -2 -13 -6 -29 -10 -35 -4
-7 0 -12 11 -13 14 0 15 -2 3 -7 -19 -9 -22 -42 -4 -42 8 0 14 -9 14 -20 0
-11 7 -20 15 -20 11 0 14 -7 9 -24 -4 -16 -1 -25 10 -29 17 -7 22 8 7 17 -4 3
-6 18 -3 32 3 17 1 25 -5 21 -6 -4 -13 7 -16 26 -5 37 1 51 10 19 3 -12 10
-22 17 -22 14 0 20 -96 6 -105 -5 -3 -7 -12 -3 -20 3 -9 -1 -15 -10 -15 -10 0
-14 7 -11 23 4 20 4 20 -6 -2 -7 -17 -7 -34 -1 -53 9 -26 7 -32 -11 -29 -5 0
-8 -4 -8 -11 0 -26 -13 4 -17 39 -6 57 -11 81 -19 95 -4 6 -8 41 -10 77 -2 78
-9 112 -25 121 -7 5 -5 12 5 23 9 8 16 20 16 26 0 6 2 11 5 11 3 0 3 -16 -1
-36z m-2106 -282 c2 -7 -5 -12 -17 -12 -11 0 -25 -8 -30 -19 -6 -10 -27 -26
-48 -36 -56 -27 -111 -63 -173 -116 -49 -41 -91 -69 -103 -69 -15 0 -13 32 4
52 11 13 29 33 40 46 10 12 19 27 19 32 0 6 9 10 19 10 24 0 36 16 19 24 -7 3
-3 3 10 0 16 -4 22 -1 22 10 0 22 37 44 88 52 23 4 45 10 47 14 3 5 13 6 23 4
9 -3 26 2 37 10 22 17 37 16 43 -2z m-6123 -118 c-3 -85 -1 -109 10 -121 9 -8
12 -19 9 -24 -3 -6 3 -13 15 -16 14 -3 21 -13 21 -29 0 -17 -4 -22 -15 -18
-22 9 -19 -19 6 -50 26 -33 22 -62 -9 -58 -15 2 -22 -2 -22 -13 0 -17 43 -38
48 -24 7 17 18 9 19 -13 1 -12 -6 -27 -15 -34 -16 -12 -16 -13 0 -14 35 0 34
-79 -2 -97 -27 -13 -149 -38 -156 -31 -10 10 8 36 29 42 12 3 33 15 47 25 l24
19 -27 13 c-21 10 -30 10 -39 1 -18 -18 -32 -14 -17 4 10 13 10 17 0 24 -8 4
-10 13 -6 19 4 7 2 17 -4 24 -12 16 -6 90 8 95 5 2 7 10 4 18 -3 8 0 21 7 29
7 8 9 15 4 15 -5 0 -3 4 5 9 7 5 14 28 15 55 1 26 7 50 13 54 8 5 13 43 15
105 1 53 6 97 10 97 4 0 5 -48 3 -106z m7100 70 c20 -48 19 -54 -5 -25 -15 18
-20 19 -20 7 0 -9 -8 -23 -18 -32 -24 -20 -18 -64 8 -64 10 0 21 -6 23 -12 3
-8 6 -6 6 5 1 9 8 17 16 17 11 0 12 -5 5 -26 -9 -23 -7 -69 6 -131 2 -13 11
-23 19 -23 19 0 19 -2 0 -46 -8 -20 -19 -33 -24 -30 -5 4 -19 35 -30 71 -12
36 -30 80 -41 97 -11 18 -20 40 -20 49 0 9 -7 30 -15 45 -18 35 -19 74 -3 109
9 19 19 25 44 25 29 0 36 -5 49 -36z m1570 -303 c3 -6 -3 -8 -13 -6 -15 3 -18
-4 -19 -36 0 -21 3 -39 8 -39 5 0 9 5 9 11 0 5 5 7 10 4 6 -3 10 -1 10 4 0 23
26 10 36 -17 16 -42 6 -92 -17 -92 -11 0 -19 5 -19 11 0 5 5 7 12 3 8 -5 9 -2
5 11 -4 9 -2 24 4 31 13 16 4 48 -11 39 -5 -3 -10 -18 -10 -33 0 -22 -2 -24
-10 -12 -8 11 -9 8 -4 -13 5 -23 1 -34 -24 -58 -22 -21 -29 -25 -26 -12 3 10
1 28 -3 40 -8 21 -10 22 -35 8 -17 -8 -30 -10 -34 -4 -3 5 -9 7 -14 4 -5 -3
-2 -22 6 -43 14 -36 14 -36 -3 -16 -10 11 -24 19 -31 16 -8 -2 -10 2 -6 13 4
10 2 15 -7 13 -8 -2 -14 4 -14 12 0 8 -4 18 -9 21 -4 4 -3 15 3 25 9 17 11 17
12 -6 1 -14 1 -29 0 -35 -1 -5 10 2 24 18 14 15 32 27 39 27 8 0 16 6 19 14 6
16 57 28 57 13 0 -6 3 -7 6 -4 4 4 1 14 -7 24 -9 11 -10 14 -1 9 15 -9 16 6 0
22 -9 9 -8 15 8 27 22 17 40 19 49 6z"/>
<path d="M10960 19799 c0 -19 -2 -21 -10 -9 -8 13 -10 12 -10 -2 0 -10 4 -18
9 -18 6 0 9 -8 9 -17 0 -10 3 -31 7 -47 6 -20 5 -27 -3 -22 -7 4 -5 -9 4 -31
9 -21 18 -49 20 -63 3 -14 7 -33 10 -44 5 -13 2 -17 -7 -12 -8 4 -6 1 4 -7 9
-8 17 -19 17 -26 0 -6 4 -11 8 -11 4 0 8 -32 8 -71 0 -58 4 -74 19 -85 12 -9
19 -28 21 -53 1 -21 9 -51 16 -66 12 -23 16 -25 21 -11 4 9 3 15 -1 13 -4 -3
-8 27 -9 66 -2 40 -7 73 -12 75 -5 2 -6 12 -3 24 4 16 2 19 -8 13 -10 -6 -12
-2 -8 18 3 15 2 24 -2 22 -4 -3 -10 16 -14 42 -9 71 -8 76 14 70 11 -3 20 -1
20 3 0 5 -10 10 -22 12 -15 2 -23 11 -25 33 -3 16 -9 32 -14 36 -6 3 -11 12
-13 20 -1 8 -5 23 -9 34 -7 22 -17 67 -22 103 -5 33 -15 40 -15 11z"/>
<path d="M1766 19063 c-3 -42 -6 -99 -6 -127 0 -61 -9 -98 -21 -90 -9 5 -10 4
-14 -31 -1 -11 -5 -34 -9 -52 -4 -17 -3 -34 2 -37 5 -3 7 -26 5 -50 -5 -37 -2
-46 15 -55 19 -10 21 -19 19 -116 -2 -101 4 -130 17 -82 3 12 6 78 6 146 0
106 -2 126 -17 137 -17 13 -17 13 0 14 12 0 17 8 17 28 1 64 10 282 15 335 4
43 1 57 -9 57 -9 0 -15 -23 -20 -77z"/>
<path d="M7317 18756 c-63 -17 -72 -29 -20 -25 49 4 57 -2 48 -31 -4 -12 -9
-19 -11 -17 -3 3 -19 -8 -36 -23 -17 -15 -51 -38 -75 -51 -25 -13 -40 -25 -33
-27 21 -7 154 67 204 113 55 51 80 60 42 14 -14 -17 -26 -39 -26 -50 0 -28 84
-26 160 5 78 32 78 5 0 -41 -17 -9 -30 -22 -30 -28 0 -5 -16 -21 -34 -35 -19
-14 -33 -27 -31 -28 5 -6 107 73 140 107 40 43 79 62 96 47 9 -8 10 -8 5 2
-11 20 66 -26 92 -54 l22 -25 0 23 c0 48 -10 65 -34 61 -13 -3 -36 2 -52 10
-16 8 -46 15 -66 15 -20 0 -42 3 -48 7 -6 4 -27 9 -47 11 -21 3 -44 11 -53 19
-21 19 -145 19 -213 1z"/>
<path d="M11640 18628 c0 -5 -4 -7 -9 -4 -11 7 -63 -11 -72 -26 -4 -7 -13 -7
-27 1 -14 7 -23 8 -27 1 -4 -6 -11 -8 -16 -5 -5 4 -9 2 -9 -4 0 -5 6 -12 13
-15 6 -3 1 -4 -13 -1 -31 5 -61 -11 -43 -23 17 -11 4 -52 -16 -52 -9 0 -12 3
-6 8 14 10 12 39 -3 54 -20 20 -44 -13 -47 -65 -2 -35 1 -44 11 -40 8 3 14 9
14 13 0 8 33 18 90 27 22 4 57 10 69 12 3 1 -2 7 -11 14 -11 8 -13 19 -8 37
l8 25 1 -27 c1 -18 6 -28 17 -28 8 0 12 -5 9 -10 -4 -7 3 -8 22 -4 41 10 48
16 29 26 -9 5 -21 6 -28 2 -7 -5 -8 -3 -3 5 4 7 16 11 26 8 24 -6 40 13 32 41
-4 16 -1 22 11 22 9 0 16 4 16 8 0 5 -7 9 -15 9 -8 0 -15 -4 -15 -9z"/>
<path d="M11255 18560 c-30 -33 -154 -91 -221 -104 -10 -2 -49 -7 -86 -11 -38
-4 -68 -10 -68 -14 0 -10 117 -1 175 14 34 9 54 9 63 2 7 -5 10 -12 7 -16 -3
-3 -10 1 -15 9 -8 13 -10 13 -10 -2 0 -24 68 -33 131 -17 54 14 61 19 78 64
l11 30 -4 -31 c-5 -35 0 -45 18 -38 6 2 11 17 10 32 -1 15 -3 33 -3 39 -1 9
-12 11 -35 7 -38 -6 -54 7 -31 26 16 14 20 30 7 30 -5 0 -17 -9 -27 -20z"/>
<path d="M3317 17183 c-12 -12 -8 -130 6 -141 6 -6 26 -12 42 -15 19 -2 11 -5
-22 -6 -45 -1 -53 -4 -53 -20 0 -16 -8 -20 -37 -23 l-38 -3 0 -75 0 -75 78 -3
77 -3 0 81 0 80 -30 0 c-16 0 -30 5 -30 10 0 6 37 10 90 10 53 0 90 -4 90 -10
0 -5 -13 -10 -30 -10 l-30 0 0 -80 0 -81 78 3 77 3 0 75 0 75 -37 3 c-30 3
-38 7 -38 23 0 16 -8 19 -52 20 -47 1 -49 2 -18 8 l35 6 3 78 3 77 -79 0 c-43
0 -82 -3 -85 -7z"/>
<path d="M6980 17170 c0 -5 -14 -10 -30 -10 -55 0 -53 -68 3 -96 17 -9 42 -29
54 -44 12 -15 36 -33 53 -40 26 -11 30 -17 30 -51 0 -35 -3 -39 -25 -39 -14 0
-25 -4 -25 -10 0 -6 27 -10 60 -10 33 0 60 4 60 10 0 6 -11 10 -25 10 -22 0
-25 4 -25 39 0 32 4 41 22 47 12 4 39 24 61 45 21 22 44 39 52 39 20 0 45 40
45 72 0 25 -3 28 -35 28 -19 0 -35 5 -35 10 0 6 -47 10 -120 10 -73 0 -120 -4
-120 -10z m210 -64 c0 -43 -5 -58 -25 -80 -28 -30 -87 -36 -122 -11 -23 16
-43 70 -43 118 l0 27 95 0 95 0 0 -54z"/>
<path d="M3307 15990 c-84 -46 -119 -158 -77 -245 62 -129 248 -143 326 -25
55 83 37 196 -41 256 -51 38 -150 45 -208 14z m137 -111 c30 -24 34 -63 10
-97 -11 -16 -25 -22 -54 -22 -67 0 -93 68 -45 115 30 30 54 31 89 4z"/>
<path d="M6915 15777 c-3 -7 -4 -89 -3 -182 l3 -170 185 0 185 0 0 180 0 180
-183 3 c-143 2 -184 0 -187 -11z m350 -172 l0 -160 -165 0 -165 0 -3 150 c-1
82 0 155 3 162 3 11 40 13 167 11 l163 -3 0 -160z"/>
<path d="M3371 14795 c-32 -37 -39 -55 -44 -120 l-3 -40 -17 38 c-10 20 -20
37 -23 37 -3 0 -12 -16 -20 -35 -18 -44 -18 -108 1 -145 47 -90 212 -94 266
-6 23 37 25 120 4 156 -8 14 -14 35 -15 48 0 29 -27 27 -44 -3 -6 -11 -12 -22
-14 -25 -9 -13 -22 32 -22 78 0 44 -3 52 -19 52 -10 0 -33 -16 -50 -35z m75
-130 c22 -34 31 -31 39 13 l7 37 19 -35 c10 -19 18 -54 19 -78 0 -35 -6 -49
-34 -80 -32 -35 -38 -37 -95 -37 -52 0 -63 4 -90 29 -33 31 -47 80 -37 121 l7
26 25 -31 c41 -48 57 -40 49 23 -7 55 4 98 33 130 15 17 17 15 29 -37 7 -31
20 -67 29 -81z"/>
<path d="M7007 14590 c-84 -46 -119 -158 -77 -245 62 -129 248 -143 326 -25
55 83 37 196 -41 256 -51 38 -150 45 -208 14z m175 -22 c100 -56 113 -185 27
-263 -66 -59 -152 -59 -218 1 -144 129 22 357 191 262z"/>
<path d="M2250 6930 c0 -83 1 -90 20 -90 18 0 20 7 20 71 l0 70 38 -3 c29 -2
37 -7 37 -23 0 -12 -9 -21 -25 -25 -31 -7 -33 -34 -3 -38 25 -4 73 37 73 61 0
8 -9 26 -21 41 -18 23 -28 26 -80 26 l-59 0 0 -90z"/>
<path d="M2473 6996 c-22 -19 -28 -32 -28 -66 0 -116 173 -123 192 -8 5 32 1
41 -25 68 -40 39 -97 42 -139 6z"/>
<path d="M2690 6931 c0 -84 1 -91 20 -91 17 0 20 7 20 46 l0 46 55 -47 55 -47
0 91 c0 84 -1 91 -20 91 -17 0 -20 -7 -20 -46 l0 -46 -55 47 -55 47 0 -91z"/>
<path d="M2910 6930 l0 -90 51 0 c43 0 55 5 80 29 31 31 36 64 18 104 -14 32
-49 47 -104 47 l-45 0 0 -90z"/>
<path d="M3120 6970 l0 -50 44 0 c50 0 68 -16 41 -36 -16 -12 -22 -12 -41 1
-47 31 -71 12 -34 -25 39 -39 130 -14 130 36 0 34 -20 53 -65 60 -60 9 -57 24
5 24 43 0 50 3 50 20 0 18 -7 20 -65 20 l-65 0 0 -50z"/>
<path d="M5802 6974 c-65 -27 -45 -125 28 -132 62 -6 102 63 65 115 -18 26
-55 33 -93 17z"/>
<path d="M600 3140 l0 -1740 6155 0 6155 0 0 1740 0 1740 -6155 0 -6155 0 0
-1740z m7530 397 l5 -57 20 30 c16 23 27 30 53 30 l33 0 -23 -31 c-13 -17 -27
-37 -33 -45 -10 -15 -10 -15 33 -73 l23 -31 -33 0 c-26 0 -37 7 -53 30 l-20
30 -5 -27 c-4 -22 -12 -29 -33 -31 l-27 -3 0 121 0 121 28 -3 c25 -3 27 -7 32
-61z m431 42 c31 -31 23 -80 -18 -99 -18 -8 -33 -21 -33 -27 0 -8 -13 -13 -30
-13 -22 0 -30 5 -30 18 0 26 12 40 43 47 17 5 27 14 27 26 0 20 -24 26 -35 9
-3 -5 -17 -10 -31 -10 -17 0 -24 5 -24 19 0 47 92 69 131 30z m-3468 0 c40
-21 57 -51 57 -104 0 -82 -40 -115 -139 -115 l-61 0 0 115 0 115 61 0 c33 0
70 -5 82 -11z m234 -63 c22 -19 28 -32 28 -66 0 -34 -6 -47 -28 -66 -63 -54
-157 -16 -157 63 0 21 6 45 13 54 34 44 101 52 144 15z m166 -27 l22 -51 19
51 c16 46 21 51 48 51 25 0 29 -3 24 -17 -4 -10 -28 -69 -53 -130 -46 -112
-47 -113 -80 -113 l-33 0 22 44 21 45 -32 73 c-18 40 -35 79 -38 86 -3 8 5 12
26 12 28 0 34 -5 54 -51z m284 27 c22 -19 28 -32 28 -66 0 -54 -37 -90 -94
-90 -72 0 -111 65 -80 134 23 49 100 61 146 22z m103 -28 c0 -64 10 -81 41
-76 22 3 24 8 27 66 3 61 3 62 32 62 l30 0 0 -90 0 -90 -30 0 c-17 0 -30 5
-30 12 0 9 -3 9 -12 0 -17 -17 -68 -15 -90 5 -14 13 -18 31 -18 90 0 71 1 73
25 73 23 0 25 -3 25 -52z m457 28 c22 -19 28 -32 28 -66 0 -54 -37 -90 -94
-90 -95 0 -128 121 -46 168 34 19 81 14 112 -12z m113 -23 c19 -72 23 -73 40
-13 15 51 18 55 49 58 24 3 32 0 28 -10 -3 -7 -17 -48 -32 -90 l-27 -78 -36 0
-37 0 -31 90 -32 90 33 0 c30 0 33 -3 45 -47z m285 22 c14 -13 25 -36 25 -50
0 -24 -2 -25 -60 -25 -47 0 -60 -3 -60 -15 0 -17 45 -21 55 -5 8 13 52 13 60
0 3 -5 -5 -21 -19 -35 -19 -19 -36 -25 -66 -25 -56 0 -90 34 -90 90 0 56 34
90 90 90 30 0 47 -6 65 -25z m252 1 c22 -19 28 -32 28 -66 0 -34 -6 -47 -28
-66 -31 -26 -75 -31 -110 -12 -33 17 -46 39 -46 78 0 19 5 42 12 51 34 44 101
52 144 15z m103 -30 c0 -64 19 -92 51 -76 15 9 19 22 19 70 0 60 0 60 30 60
l30 0 0 -90 0 -90 -30 0 c-16 0 -30 5 -30 10 0 7 -6 7 -19 0 -29 -15 -62 -12
-83 7 -14 13 -18 31 -18 90 0 71 1 73 25 73 24 0 25 -3 25 -54z m416 9 c9 -63
20 -64 34 -4 12 48 14 50 42 47 28 -3 32 -9 47 -58 l17 -55 8 40 c12 69 16 75
43 75 21 0 24 -3 19 -22 -3 -13 -14 -53 -23 -90 -16 -67 -17 -68 -49 -68 -30
0 -33 3 -45 50 -7 27 -16 47 -20 45 -3 -3 -12 -25 -18 -50 -11 -44 -13 -46
-44 -43 -30 3 -33 7 -48 63 -33 124 -33 115 0 115 28 0 30 -3 37 -45z m371 21
c22 -19 28 -32 28 -66 0 -34 -6 -47 -28 -66 -31 -26 -75 -31 -110 -12 -33 17
-46 39 -46 78 0 19 5 42 12 51 34 44 101 52 144 15z m501 8 c30 -20 28 -44 -2
-44 -14 0 -28 5 -31 10 -9 14 -37 12 -33 -2 2 -6 17 -16 34 -21 35 -12 64 -35
64 -54 0 -25 -39 -53 -75 -53 -26 0 -44 8 -63 28 l-27 27 29 3 c16 2 33 -1 39
-7 15 -15 37 -14 37 3 0 7 -14 16 -32 20 -35 7 -68 32 -68 53 0 44 83 69 128
37z m-876 -439 c50 -35 98 -120 98 -174 0 -88 -47 -163 -125 -200 -44 -21 -53
-21 -719 -21 -640 0 -677 1 -719 19 -142 61 -171 263 -51 359 65 52 51 51 786
49 l686 -2 44 -30z"/>
<path d="M6057 3085 c-164 -58 -167 -292 -5 -360 33 -13 125 -15 705 -15 628
0 670 2 708 19 66 30 115 102 115 167 0 83 -63 173 -135 193 -64 17 -1338 14
-1388 -4z"/>
</g>
</svg>
