<?xml version="1.0" encoding="UTF-8" standalone="no"?>
<!-- Created with Inkscape (http://www.inkscape.org/) -->

<svg
   xmlns:dc="http://purl.org/dc/elements/1.1/"
   xmlns:cc="http://creativecommons.org/ns#"
   xmlns:rdf="http://www.w3.org/1999/02/22-rdf-syntax-ns#"
   xmlns:svg="http://www.w3.org/2000/svg"
   xmlns="http://www.w3.org/2000/svg"
   xmlns:sodipodi="http://sodipodi.sourceforge.net/DTD/sodipodi-0.dtd"
   xmlns:inkscape="http://www.inkscape.org/namespaces/inkscape"
   id="svg2"
   version="1.1"
   inkscape:version="0.47 r22583"
   width="400"
   height="300"
   sodipodi:docname="peluche-php.jpg">
  <metadata
     id="metadata8">
    <rdf:RDF>
      <cc:Work
         rdf:about="">
        <dc:format>image/svg+xml</dc:format>
        <dc:type
           rdf:resource="http://purl.org/dc/dcmitype/StillImage" />
        <dc:title></dc:title>
      </cc:Work>
    </rdf:RDF>
  </metadata>
  <defs
     id="defs6">
    <inkscape:perspective
       sodipodi:type="inkscape:persp3d"
       inkscape:vp_x="0 : 0.5 : 1"
       inkscape:vp_y="0 : 1000 : 0"
       inkscape:vp_z="1 : 0.5 : 1"
       inkscape:persp3d-origin="0.5 : 0.33333333 : 1"
       id="perspective10" />
    <inkscape:perspective
       id="perspective3839"
       inkscape:persp3d-origin="0.5 : 0.33333333 : 1"
       inkscape:vp_z="1 : 0.5 : 1"
       inkscape:vp_y="0 : 1000 : 0"
       inkscape:vp_x="0 : 0.5 : 1"
       sodipodi:type="inkscape:persp3d" />
  </defs>
  <sodipodi:namedview
     pagecolor="#ffffff"
     bordercolor="#666666"
     borderopacity="1"
     objecttolerance="10"
     gridtolerance="10"
     guidetolerance="10"
     inkscape:pageopacity="0"
     inkscape:pageshadow="2"
     inkscape:window-width="1280"
     inkscape:window-height="780"
     id="namedview4"
     showgrid="false"
     showguides="true"
     inkscape:guide-bbox="true"
     inkscape:zoom="0.39333333"
     inkscape:cx="25.74604"
     inkscape:cy="-42.570979"
     inkscape:window-x="-1"
     inkscape:window-y="0"
     inkscape:window-maximized="1"
     inkscape:current-layer="svg2" />
  <flowRoot
     xml:space="preserve"
     id="flowRoot3610"
     style="fill:black;stroke:none;stroke-opacity:1;stroke-width:1px;stroke-linejoin:miter;stroke-linecap:butt;fill-opacity:1;font-family:Winks;font-style:normal;font-weight:normal;font-size:40px;-inkscape-font-specification:Winks;font-stretch:normal;font-variant:normal"><flowRegion
       id="flowRegion3612"><rect
         id="rect3614"
         width="210.3343"
         height="110.56034"
         x="224.71614"
         y="-120.66861" /></flowRegion><flowPara
       id="flowPara3616"></flowPara></flowRoot>  <g
     id="g4011"
     transform="matrix(0.71420219,0,0,0.71420219,34.045056,39.850858)">
    <path
       id="path2818"
       d="m 138.42514,189.43966 c 3.59546,1.3483 1.79773,-0.44943 0,0 z"
       style="fill:none;stroke:#000000;stroke-width:1px;stroke-linecap:butt;stroke-linejoin:miter;stroke-opacity:1" />
    <path
       style="fill:#2d91f2;fill-opacity:1;stroke:#000000;stroke-width:2.87069988;stroke-linecap:butt;stroke-linejoin:miter;stroke-miterlimit:4;stroke-opacity:1;stroke-dasharray:none"
       d="m 185.23509,320.4301 -1.15706,-85.27289 c -1.89926,25.49461 41.9297,17.94406 70.79925,14.003 24.24945,-1.83904 46.82589,3.01084 47.72575,-20.07751 l 4.58599,86.40321 c 19.225,7.34172 66.13163,15.76223 80.90155,-14.26082 l -1.42798,-106.21742 c 14.53555,-34.54635 38.39818,-58.88661 14.0914,-131.89345 l 62.79177,-0.91218 c 8.52805,4.78883 16.73296,8.58803 24.09229,9.79804 4.09452,-3.54505 10.06155,-7.2211 11.78817,-13.16246 l 0.56143,-16.30382 c 1.26464,-6.79763 -3.21759,-8.70706 -8.9282,-9.57166 l -14.06554,0.69406 -12.86958,8.28216 -83.53821,-0.15423 C 322.72122,4.40501 273.25151,-5.33067 200.69724,10.15587 c -4.9739,-6.37638 -6.8274,-11.3063 -20.55108,-11.44169 -32.76369,-1.87121 -50.2748,11.8258 -70.37178,22.88339 -47.86936,-1.68635 -67.56173,3.24675 -80.47228,7.82432 -6.11549,2.16831 -10.2475,3.03607 -14.3428,6.31888 -5.60945,4.49657 -7.94867,7.87708 -12.89465,17.4294 -12.71936,24.5653 -29.71716,80.84127 -21.82419,236.03597 5.48918,8.34671 10.614,17.62314 19.30554,17.79821 19.82605,8.84753 20.7397,-4.00082 24.91037,-9.53475 -8.44514,-93.92601 11.23429,-104.38889 31.76072,-115.68828 35.88725,-3.56286 25.59003,2.80445 37.35854,24.48589 1.46226,2.69396 9.06952,15.79781 10.91446,18.70636 l -0.66702,90.92987 c 31.29095,15.68497 51.63106,13.94161 81.41202,4.52666 z"
       id="path3869"
       sodipodi:nodetypes="cccccccccccccccccccsasccccsccc" />
    <path
       d="m 77.94515,99.46222 -58.03751,-0.21282 7.26339,-24.47464 85.98048,0 c 20.28897,7e-5 28.05451,8.01641 23.29661,24.04899 l -9.22137,31.07215 c -4.75819,16.03267 -17.28176,24.049 -37.57077,24.049 l -61.93149,0 -16.35843,55.12115 -24.04899,0 23.62184,-79.59579 83.21377,0 c 5.39142,3e-5 8.38192,-0.99314 8.97152,-2.97952 l 6.94759,-23.41053 c 0.71572,-2.41194 -1.62215,-3.61792 -7.01355,-3.61799 l -25.11309,0"
       style="font-size:144px;font-style:normal;font-variant:normal;font-weight:bold;font-stretch:normal;text-align:start;line-height:125%;writing-mode:lr-tb;text-anchor:start;fill:#ffffff;fill-opacity:1;stroke:#000000;stroke-opacity:1;font-family:Radio Space Bold;-inkscape-font-specification:'Radio Space Bold, Bold'"
       id="path3954" />
    <path
       d="m 333.08651,99.46222 -58.16247,-0.21282 -7.10681,-24.47464 85.98049,0 c 20.289,7e-5 32.76129,8.01641 37.41689,24.04899 l 9.02257,31.07215 c 4.65533,16.03267 -3.1615,24.049 -23.45048,24.049 l -61.93149,0 16.00576,55.12115 -24.049,0 -23.11256,-79.59579 83.21378,0 c 5.39139,3e-5 7.79877,-0.99314 7.22209,-2.97952 l -6.79783,-23.41053 c -0.70047,-2.41194 -3.74642,-3.61792 -9.13784,-3.61799 l -25.1131,0"
       style="font-size:144px;font-style:normal;font-variant:normal;font-weight:bold;font-stretch:normal;text-align:start;line-height:125%;writing-mode:lr-tb;text-anchor:start;fill:#ffffff;fill-opacity:1;stroke:#000000;stroke-opacity:1;font-family:Radio Space Bold;-inkscape-font-specification:'Radio Space Bold, Bold'"
       id="path3958" />
    <path
       sodipodi:nodetypes="cccccccccccccc"
       d="m 238.44875,133.51017 6.10425,67.42053 23.68999,0.32659 -15.51673,-152.56819 -23.38303,-0.0069 6.05491,56.57154 -54.65219,-0.45286 5.92341,-56.110475 -26.41339,0 -15.79579,151.311005 26.41339,0 7.8979,-66.52555 59.67728,0.0343 0,10e-6 z"
       style="font-size:144px;font-style:normal;font-variant:normal;font-weight:bold;font-stretch:normal;text-align:start;line-height:125%;writing-mode:lr-tb;text-anchor:start;fill:#ffffff;fill-opacity:1;stroke:#000000;stroke-opacity:1;font-family:Radio Space Bold;-inkscape-font-specification:'Radio Space Bold, Bold'"
       id="path3956" />
  </g>
</svg>
